<svg width="1200" height="630" viewBox="0 0 1200 630" xmlns="http://www.w3.org/2000/svg"><clipPath id="satori_cp-id"><rect x="0" y="0" width="1200" height="630"/></clipPath><mask id="satori_om-id"><rect x="0" y="0" width="1200" height="630" fill="#fff"/></mask><rect x="0" y="0" width="1200" height="630" fill="#0a0a0a"/><clipPath id="satori_cp-id-0" clip-path="url(#satori_cp-id)"><rect x="0" y="0" width="1200" height="630"/></clipPath><mask id="satori_om-id-0"><rect x="0" y="0" width="1200" height="630" fill="#fff" mask="url(#satori_om-id)"/></mask><image x="0" y="0" width="1200" height="630" href="data:image/svg+xml;utf8,%3Csvg  xmlns=%22http://www.w3.org/2000/svg%22 width=%22null%22 height=%22null%22%3E%3Cdefs%3E%3Cfilter id=%22fluid-glow%22 x=%22-50%25%22 y=%22-50%25%22 width=%22200%25%22 height=%22200%25%22%3E%3CfeTurbulence type=%22fractalNoise%22 baseFrequency=%220.012%22 numOctaves=%224%22 result=%22noise%22%3E%3C/feTurbulence%3E%3CfeColorMatrix type=%22matrix%22 values=%221 0 0 0 0  0 1 0 0 0  0 0 1 0 0  0 0 0 19 -9%22 in=%22noise%22 result=%22coloredNoise%22%3E%3C/feColorMatrix%3E%3CfeDisplacementMap in=%22SourceGraphic%22 in2=%22coloredNoise%22 scale=%2240%22 xChannelSelector=%22R%22 yChannelSelector=%22G%22 result=%22disp%22%3E%3C/feDisplacementMap%3E%3CfeGaussianBlur in=%22disp%22 stdDeviation=%2212%22 result=%22blur%22%3E%3C/feGaussianBlur%3E%3CfeMerge%3E%3CfeMergeNode in=%22blur%22%3E%3C/feMergeNode%3E%3CfeMergeNode in=%22SourceGraphic%22%3E%3C/feMergeNode%3E%3C/feMerge%3E%3C/filter%3E%3CradialGradient id=%22void-grad%22 cx=%2250%25%22 cy=%2250%25%22 r=%2250%25%22%3E%3Cstop offset=%220%25%22 stop-color=%22rgba(255, 255, 255, 0.04)%22%3E%3C/stop%3E%3Cstop offset=%22100%25%22 stop-color=%22rgba(0, 0, 0, 0)%22%3E%3C/stop%3E%3C/radialGradient%3E%3C/defs%3E%3Crect width=%22100%25%22 height=%22100%25%22 fill=%22url(%23void-grad)%22%3E%3C/rect%3E%3Ccircle cx=%22200%22 cy=%22150%22 r=%22120%22 fill=%22rgba(99, 102, 241, 0.15)%22 filter=%22url(%23fluid-glow)%22%3E%3C/circle%3E%3Ccircle cx=%221000%22 cy=%22500%22 r=%22180%22 fill=%22rgba(236, 72, 153, 0.12)%22 filter=%22url(%23fluid-glow)%22%3E%3C/circle%3E%3C/svg%3E" preserveAspectRatio="none" clip-path="url(#satori_cp-id-0)" mask="url(#satori_om-id-0)"/><mask id="satori_om-id-0-0"><rect x="0" y="0" width="0" height="630" fill="#fff" mask="url(#satori_om-id)"/></mask><mask id="satori_om-id-0-0-0"><rect x="0" y="0" width="0" height="630" fill="#fff" mask="url(#satori_om-id)"/></mask><mask id="satori_om-id-0-0-0-0"><rect x="0" y="0" width="0" height="630" fill="#fff" mask="url(#satori_om-id)"/></mask><mask id="satori_om-id-0-0-0-1"><rect x="0" y="0" width="0" height="630" fill="#fff" mask="url(#satori_om-id)"/></mask><mask id="satori_om-id-0-0-0-2"><rect x="0" y="0" width="0" height="630" fill="#fff" mask="url(#satori_om-id)"/></mask><mask id="satori_om-id-0-0-0-3"><rect x="0" y="0" width="0" height="630" fill="#fff" mask="url(#satori_om-id)"/></mask><mask id="satori_om-id-0-0-0-4"><rect x="0" y="0" width="0" height="630" fill="#fff" mask="url(#satori_om-id)"/></mask><mask id="satori_om-id-0-0-0-4-0"><rect x="0" y="0" width="0" height="630" fill="#fff" mask="url(#satori_om-id)"/></mask><mask id="satori_om-id-0-0-0-4-1"><rect x="0" y="0" width="0" height="630" fill="#fff" mask="url(#satori_om-id)"/></mask><mask id="satori_om-id-0-0-1"><rect x="0" y="0" width="0" height="630" fill="#fff" mask="url(#satori_om-id)"/></mask><mask id="satori_om-id-0-0-1-0"><rect x="0" y="0" width="0" height="630" fill="#fff" mask="url(#satori_om-id)"/></mask><mask id="satori_om-id-0-0-1-1"><rect x="0" y="0" width="0" height="630" fill="#fff" mask="url(#satori_om-id)"/></mask><mask id="satori_om-id-0-1"><rect x="0" y="0" width="0" height="630" fill="#fff" mask="url(#satori_om-id)"/></mask><mask id="satori_om-id-0-2"><rect x="0" y="0" width="0" height="630" fill="#fff" mask="url(#satori_om-id)"/></mask><mask id="satori_om-id-0-3"><rect x="0" y="0" width="0" height="630" fill="#fff" mask="url(#satori_om-id)"/></mask><mask id="satori_om-id-1"><rect x="64" y="64" width="1072" height="130" fill="#fff" mask="url(#satori_om-id)"/></mask><mask id="satori_om-id-1-0"><rect x="64" y="64" width="1072" height="87" fill="#fff" mask="url(#satori_om-id)"/></mask><g mask="url(#satori_om-id)" clip-path="url(#satori_cp-id)"><path fill="#ffffff" d="M80.5 134L68.1 134L68.1 81.6L87.4 81.6L94.1 102.0Q94.7 103.9 95.4 106.9Q96.1 110.0 96.8 113.5L96.8 113.5Q97.5 116.6 98.0 119.4L98.0 119.4Q98.6 116.6 99.2 113.5L99.2 113.5Q99.9 110.0 100.6 107.0Q101.3 103.9 101.9 102.0L101.9 102.0L108.5 81.6L127.8 81.6L127.8 134L115.4 134L115.4 111.4Q115.4 109.7 115.4 106.9Q115.5 104.2 115.6 100.9Q115.7 97.7 115.8 94.4L115.8 94.4Q115.8 93.1 115.8 91.8L115.8 91.8Q115.5 93.3 115.2 94.7L115.2 94.7Q114.3 98.1 113.5 101.2Q112.7 104.4 111.9 107.0Q111.1 109.7 110.6 111.4L110.6 111.4L103.2 134L92.8 134L85.2 111.4Q84.7 109.7 83.9 107.1Q83.2 104.4 82.3 101.3Q81.5 98.1 80.6 94.8L80.6 94.8Q80.3 93.6 80.1 92.5L80.1 92.5Q80.1 93.4 80.1 94.3L80.1 94.3Q80.2 97.6 80.3 100.8Q80.3 104.1 80.4 106.9Q80.5 109.6 80.5 111.4L80.5 111.4L80.5 134ZM155.2 134.7L155.2 134.7Q148.6 134.7 143.6 132.3Q138.6 129.9 135.9 125.6Q133.1 121.2 133.1 115.4L133.1 115.4L133.1 81.6L145.5 81.6L145.5 114.4Q145.5 117.1 146.8 119.3Q148.0 121.4 150.2 122.6Q152.3 123.8 155.2 123.8L155.2 123.8Q158.1 123.8 160.3 122.6Q162.5 121.4 163.7 119.3Q164.9 117.1 164.9 114.4L164.9 114.4L164.9 81.6L177.3 81.6L177.3 115.4Q177.3 121.2 174.5 125.6Q171.8 129.9 166.8 132.3Q161.8 134.7 155.2 134.7ZM195.3 134L182.6 134L182.6 81.6L196.2 81.6L210.9 105.3Q212.3 107.6 213.6 110.1Q215.0 112.7 216.3 115.7L216.3 115.7Q216.9 117.2 217.6 118.8L217.6 118.8Q217.5 117.6 217.4 116.4L217.4 116.4Q217.2 112.8 217.0 109.5Q216.8 106.2 216.8 103.9L216.8 103.9L216.8 81.6L229.6 81.6L229.6 134L215.9 134L202.5 112.3Q200.7 109.3 199.2 106.6Q197.8 104.0 196.3 100.8L196.3 100.8Q195.5 99.1 194.6 97.1L194.6 97.1Q194.7 99.0 194.8 100.8L194.8 100.8Q195.0 104.4 195.2 107.4Q195.3 110.3 195.3 112.3L195.3 112.3L195.3 134ZM271.1 134L234.8 134L234.8 81.6L271.2 81.6L271.2 91.7L247.2 91.7L247.2 102.6L269.3 102.6L269.3 112.5L247.2 112.5L247.2 123.9L271.1 123.9L271.1 134ZM312.2 134L275.9 134L275.9 81.6L312.2 81.6L312.2 91.7L288.3 91.7L288.3 102.6L310.3 102.6L310.3 112.5L288.3 112.5L288.3 123.9L312.2 123.9L312.2 134ZM329.3 134L316.9 134L316.9 81.6L338.3 81.6Q344.2 81.6 348.5 83.7Q352.8 85.9 355.1 89.8Q357.4 93.7 357.4 99.0L357.4 99.0Q357.4 104.4 355.1 108.2Q352.7 112.0 348.4 114.0L348.4 114.0Q348.4 114.0 348.3 114.0L348.3 114.0L359.3 134L345.7 134L336.1 116.0L329.3 116.0L329.3 134ZM329.3 91.7L329.3 106.2L335.7 106.2Q338.7 106.2 340.6 105.4Q342.6 104.6 343.6 103.0Q344.6 101.4 344.6 99.0L344.6 99.0Q344.6 96.6 343.6 94.9Q342.6 93.3 340.6 92.5Q338.6 91.7 335.7 91.7L335.7 91.7L329.3 91.7Z M385.9 134L372.1 134L389.6 81.6L406.2 81.6L424.2 134L410.3 134L406.8 122.9L389.3 122.9L385.9 134ZM392.2 113.4L403.7 113.4L403.0 111.1Q401.3 105.4 399.7 98.9L399.7 98.9Q398.7 95.3 397.8 91.5L397.8 91.5Q396.9 95.3 396.1 98.9L396.1 98.9Q394.6 105.4 392.9 111.1L392.9 111.1L392.2 113.4ZM461.4 134L427.1 134L427.1 81.6L439.5 81.6L439.5 123.9L461.4 123.9L461.4 134ZM464.9 81.6L477.3 81.6L477.3 134L464.9 134L464.9 81.6Z "/></g><mask id="satori_om-id-1-1"><rect x="64" y="163" width="1072" height="31" fill="#fff" mask="url(#satori_om-id)"/></mask><mask id="satori_om-id-1-1-0"><rect x="64" y="163" width="70" height="31" fill="#fff" mask="url(#satori_om-id)"/></mask><g mask="url(#satori_om-id)" clip-path="url(#satori_cp-id)"><path fill="#6366F1" d="M72.1 185.5L72.1 185.5Q73.1 185.5 73.9 185.2Q74.7 184.9 75.4 184.4L75.4 184.4L76.4 185.8Q75.6 186.5 74.4 186.9Q73.2 187.3 72.1 187.3L72.1 187.3Q70.2 187.3 68.9 186.5Q67.6 185.7 66.9 184.2Q66.2 182.7 66.2 180.7L66.2 180.7Q66.2 178.8 66.9 177.3Q67.6 175.8 68.9 175.0Q70.3 174.1 72.1 174.1L72.1 174.1Q73.4 174.1 74.4 174.5Q75.5 174.8 76.4 175.6L76.4 175.6L75.4 176.9Q74.6 176.3 73.8 176.1Q73.0 175.8 72.1 175.8L72.1 175.8Q70.5 175.8 69.4 177.0Q68.4 178.2 68.4 180.7L68.4 180.7Q68.4 182.4 68.9 183.5Q69.4 184.5 70.2 185.0Q71.0 185.5 72.1 185.5ZM85.1 174.1L85.1 174.1Q86.9 174.1 88.1 174.9Q89.3 175.7 90.0 177.2Q90.6 178.7 90.6 180.7L90.6 180.7Q90.6 182.6 89.9 184.1Q89.3 185.6 88.1 186.4Q86.9 187.3 85.1 187.3L85.1 187.3Q83.3 187.3 82.1 186.5Q80.9 185.6 80.3 184.2Q79.7 182.7 79.7 180.7L79.7 180.7Q79.7 178.7 80.3 177.3Q80.9 175.8 82.2 174.9Q83.4 174.1 85.1 174.1ZM85.1 175.7L85.1 175.7Q83.5 175.7 82.7 176.9Q81.8 178.2 81.8 180.7L81.8 180.7Q81.8 183.2 82.7 184.4Q83.5 185.6 85.1 185.6L85.1 185.6Q86.8 185.6 87.6 184.4Q88.4 183.2 88.4 180.7L88.4 180.7Q88.4 178.2 87.6 176.9Q86.8 175.7 85.1 175.7ZM96.3 187L94.3 187L94.3 174.4L96.0 174.4L96.1 176.1Q96.9 175.1 98.0 174.6Q99.2 174.1 100.3 174.1L100.3 174.1Q102.2 174.1 103.0 175.1Q103.9 176.1 103.9 177.8L103.9 177.8L103.9 187L101.8 187L101.8 179.3Q101.8 178.0 101.7 177.2Q101.5 176.4 101.1 176.1Q100.6 175.7 99.7 175.7L99.7 175.7Q98.9 175.7 98.3 176.0Q97.6 176.3 97.1 176.8Q96.6 177.3 96.3 177.8L96.3 177.8L96.3 187ZM112.5 185.6L112.5 185.6Q113.9 185.6 114.8 185.1Q115.6 184.5 115.6 183.6L115.6 183.6Q115.6 183.0 115.4 182.6Q115.2 182.2 114.5 181.9Q113.9 181.5 112.6 181.2L112.6 181.2Q111.2 180.9 110.3 180.4Q109.3 180.0 108.8 179.3Q108.2 178.6 108.2 177.5L108.2 177.5Q108.2 176.5 108.9 175.7Q109.5 174.9 110.5 174.5Q111.6 174.1 113.0 174.1L113.0 174.1Q114.6 174.1 115.7 174.5Q116.8 174.9 117.6 175.5L117.6 175.5L116.7 176.9Q116.0 176.4 115.2 176.1Q114.3 175.7 113.1 175.7L113.1 175.7Q111.6 175.7 111.0 176.2Q110.3 176.7 110.3 177.4L110.3 177.4Q110.3 177.9 110.6 178.3Q110.9 178.7 111.7 179.0Q112.4 179.3 113.7 179.6L113.7 179.6Q114.9 179.9 115.8 180.4Q116.8 180.8 117.3 181.6Q117.8 182.3 117.8 183.5L117.8 183.5Q117.8 184.9 117.0 185.7Q116.3 186.5 115.0 186.9Q113.8 187.3 112.5 187.3L112.5 187.3Q110.8 187.3 109.5 186.8Q108.3 186.3 107.5 185.6L107.5 185.6L108.7 184.2Q109.4 184.9 110.4 185.2Q111.4 185.6 112.5 185.6ZM131.3 185.0L132.1 186.4Q131.5 186.8 130.6 187.0Q129.6 187.3 128.7 187.3L128.7 187.3Q126.7 187.3 125.6 186.2Q124.5 185.1 124.5 183.5L124.5 183.5L124.5 175.9L121.6 175.9L121.6 174.4L124.5 174.4L124.5 171.5L126.5 171.3L126.5 174.4L130.9 174.4L130.6 175.9L126.5 175.9L126.5 183.4Q126.5 184.5 127.1 185.0Q127.6 185.6 128.9 185.6L128.9 185.6Q129.6 185.6 130.2 185.4Q130.8 185.3 131.3 185.0L131.3 185.0Z "/></g><g mask="url(#satori_om-id)" clip-path="url(#satori_cp-id)"><path fill="#A1A1AA" d="M151.1 187L144.5 187L144.5 185.5L146.5 185.5L146.5 175.9L144.5 175.9L144.5 174.4L148.0 174.4L148.4 177.4Q149.1 175.8 150.2 174.9Q151.2 174.1 152.9 174.1L152.9 174.1Q153.5 174.1 153.9 174.2Q154.3 174.2 154.7 174.4L154.7 174.4L154.4 178.6L152.8 178.6L152.8 175.9Q152.7 175.9 152.7 175.9L152.7 175.9Q151.2 175.9 150.2 177.0Q149.1 178.0 148.5 180.1L148.5 180.1L148.5 185.5L151.1 185.5L151.1 187ZM163.1 174.1L163.1 174.1Q164.9 174.1 166.1 174.9Q167.3 175.7 168.0 177.2Q168.6 178.7 168.6 180.7L168.6 180.7Q168.6 182.6 167.9 184.1Q167.3 185.6 166.1 186.4Q164.9 187.3 163.1 187.3L163.1 187.3Q161.3 187.3 160.1 186.5Q158.9 185.6 158.3 184.2Q157.7 182.7 157.7 180.7L157.7 180.7Q157.7 178.7 158.3 177.3Q158.9 175.8 160.2 174.9Q161.4 174.1 163.1 174.1ZM163.1 175.7L163.1 175.7Q161.5 175.7 160.7 176.9Q159.8 178.2 159.8 180.7L159.8 180.7Q159.8 183.2 160.7 184.4Q161.5 185.6 163.1 185.6L163.1 185.6Q164.8 185.6 165.6 184.4Q166.4 183.2 166.4 180.7L166.4 180.7Q166.4 178.2 165.6 176.9Q164.8 175.7 163.1 175.7ZM171.3 169.3L177.2 169.3L177.2 183.9Q177.2 184.8 177.8 185.2Q178.3 185.6 179.3 185.6L179.3 185.6Q179.8 185.6 180.4 185.5Q180.9 185.4 181.4 185.2L181.4 185.2L181.9 186.6Q181.4 186.9 180.6 187.1Q179.9 187.3 178.9 187.3L178.9 187.3Q177.2 187.3 176.2 186.3Q175.2 185.4 175.2 183.8L175.2 183.8L175.2 170.9L171.3 170.9L171.3 169.3ZM196.3 181.4L187.8 181.4Q187.8 182.9 188.3 183.8Q188.8 184.7 189.7 185.2Q190.5 185.6 191.5 185.6L191.5 185.6Q192.4 185.6 193.2 185.3Q194.0 185.0 194.8 184.5L194.8 184.5L195.8 185.8Q194.9 186.5 193.8 186.9Q192.6 187.3 191.4 187.3L191.4 187.3Q189.6 187.3 188.3 186.4Q187.0 185.6 186.3 184.1Q185.6 182.7 185.6 180.7L185.6 180.7Q185.6 178.8 186.3 177.3Q187.0 175.8 188.2 175.0Q189.5 174.1 191.2 174.1L191.2 174.1Q192.8 174.1 193.9 174.8Q195.1 175.6 195.7 177.0Q196.3 178.4 196.3 180.3L196.3 180.3Q196.3 180.6 196.3 180.9Q196.3 181.2 196.3 181.4L196.3 181.4ZM191.2 175.8L191.2 175.8Q189.8 175.8 188.8 176.8Q187.9 177.7 187.8 179.8L187.8 179.8L194.4 179.8Q194.3 177.8 193.5 176.8Q192.6 175.8 191.2 175.8Z M214.1 176.4L223.5 176.4L223.5 178.1L214.1 178.1L214.1 176.4ZM214.1 180.9L223.5 180.9L223.5 182.7L214.1 182.7L214.1 180.9Z "/></g><mask id="satori_om-id-1-1-2"><rect x="234" y="163" width="376" height="31" fill="#fff" mask="url(#satori_om-id)"/></mask><g mask="url(#satori_om-id)" clip-path="url(#satori_cp-id)"><path fill="#10B981" d="M242.1 175.5L240.3 175.5L239.9 169.3L242.5 169.3L242.1 175.5ZM259.1 175.6L259.1 175.6Q259.1 174.3 258.6 173.5Q258.0 172.8 257.2 172.5Q256.3 172.1 255.2 172.1L255.2 172.1L252.8 172.1L252.8 179.2L255.1 179.2Q256.2 179.2 257.1 178.9Q258.0 178.6 258.5 177.8Q259.1 177.0 259.1 175.6ZM261.3 175.6L261.3 175.6Q261.3 177.5 260.5 178.6Q259.6 179.8 258.2 180.3Q256.8 180.9 254.9 180.9L254.9 180.9L252.8 180.9L252.8 187L250.7 187L250.7 170.5L254.9 170.5Q257.9 170.5 259.6 171.7Q261.3 173.0 261.3 175.6ZM270.9 187L264.4 187L264.4 185.5L266.3 185.5L266.3 175.9L264.4 175.9L264.4 174.4L267.9 174.4L268.2 177.4Q269.0 175.8 270.0 174.9Q271.1 174.1 272.8 174.1L272.8 174.1Q273.3 174.1 273.7 174.2Q274.1 174.2 274.6 174.4L274.6 174.4L274.3 178.6L272.6 178.6L272.6 175.9Q272.6 175.9 272.5 175.9L272.5 175.9Q271.1 175.9 270.0 177.0Q269.0 178.0 268.4 180.1L268.4 180.1L268.4 185.5L270.9 185.5L270.9 187ZM278.8 174.4L284.6 174.4L284.6 185.4L288.1 185.4L288.1 187L278.7 187L278.7 185.4L282.6 185.4L282.6 176.0L278.8 176.0L278.8 174.4ZM283.0 168.4L283.0 168.4Q283.6 168.4 284.0 168.9Q284.4 169.3 284.4 169.9L284.4 169.9Q284.4 170.5 284.0 170.9Q283.6 171.3 283.0 171.3L283.0 171.3Q282.3 171.3 281.9 170.9Q281.5 170.5 281.5 169.9L281.5 169.9Q281.5 169.3 281.9 168.9Q282.3 168.4 283.0 168.4ZM294.1 187L292.1 187L292.1 174.4L293.8 174.4L294.0 176.1Q294.7 175.1 295.9 174.6Q297.0 174.1 298.1 174.1L298.1 174.1Q300.0 174.1 300.8 175.1Q301.7 176.1 301.7 177.8L301.7 177.8L301.7 187L299.7 187L299.7 179.3Q299.7 178.0 299.5 177.2Q299.4 176.4 298.9 176.1Q298.5 175.7 297.5 175.7L297.5 175.7Q296.8 175.7 296.1 176.0Q295.5 176.3 295.0 176.8Q294.4 177.3 294.1 177.8L294.1 177.8L294.1 187ZM311.7 185.5L311.7 185.5Q312.7 185.5 313.5 185.2Q314.3 184.9 315.0 184.4L315.0 184.4L316.0 185.8Q315.2 186.5 314.0 186.9Q312.8 187.3 311.7 187.3L311.7 187.3Q309.8 187.3 308.5 186.5Q307.2 185.7 306.5 184.2Q305.8 182.7 305.8 180.7L305.8 180.7Q305.8 178.8 306.5 177.3Q307.2 175.8 308.5 175.0Q309.9 174.1 311.7 174.1L311.7 174.1Q313.0 174.1 314.0 174.5Q315.1 174.8 316.0 175.6L316.0 175.6L315.0 176.9Q314.2 176.3 313.4 176.1Q312.6 175.8 311.7 175.8L311.7 175.8Q310.1 175.8 309.0 177.0Q308.0 178.2 308.0 180.7L308.0 180.7Q308.0 182.4 308.5 183.5Q309.0 184.5 309.8 185.0Q310.6 185.5 311.7 185.5ZM320.5 174.4L326.3 174.4L326.3 185.4L329.9 185.4L329.9 187L320.4 187L320.4 185.4L324.3 185.4L324.3 176.0L320.5 176.0L320.5 174.4ZM324.7 168.4L324.7 168.4Q325.4 168.4 325.8 168.9Q326.2 169.3 326.2 169.9L326.2 169.9Q326.2 170.5 325.8 170.9Q325.4 171.3 324.7 171.3L324.7 171.3Q324.1 171.3 323.7 170.9Q323.3 170.5 323.3 169.9L323.3 169.9Q323.3 169.3 323.7 168.9Q324.1 168.4 324.7 168.4ZM339.5 174.1L339.5 174.1Q341.2 174.1 342.2 174.9Q343.2 175.7 343.6 177.2Q344.1 178.7 344.1 180.7L344.1 180.7Q344.1 182.6 343.5 184.1Q343.0 185.6 341.9 186.4Q340.8 187.3 339.2 187.3L339.2 187.3Q337.1 187.3 335.9 185.8L335.9 185.8L335.9 191.8L333.9 192.1L333.9 174.4L335.6 174.4L335.7 176.1Q336.4 175.2 337.4 174.6Q338.4 174.1 339.5 174.1ZM339.0 175.7L339.0 175.7Q338.0 175.7 337.2 176.3Q336.4 177.0 335.9 177.7L335.9 177.7L335.9 184.0Q336.4 184.7 337.1 185.2Q337.9 185.6 338.8 185.6L338.8 185.6Q340.3 185.6 341.1 184.4Q341.9 183.2 341.9 180.7L341.9 180.7Q341.9 179.0 341.6 177.9Q341.3 176.8 340.7 176.3Q340.0 175.7 339.0 175.7ZM356.8 178.2L356.8 184.2Q356.8 185.0 357.1 185.3Q357.3 185.7 357.9 185.9L357.9 185.9L357.4 187.3Q356.5 187.2 355.9 186.8Q355.3 186.3 355.0 185.5L355.0 185.5Q354.4 186.4 353.3 186.8Q352.3 187.3 351.1 187.3L351.1 187.3Q349.2 187.3 348.1 186.2Q347.0 185.1 347.0 183.4L347.0 183.4Q347.0 181.4 348.5 180.4Q350.1 179.3 352.9 179.3L352.9 179.3L354.8 179.3L354.8 178.3Q354.8 176.9 354.0 176.3Q353.2 175.8 351.8 175.8L351.8 175.8Q351.2 175.8 350.3 175.9Q349.5 176.1 348.5 176.4L348.5 176.4L348.0 174.9Q349.1 174.5 350.1 174.3Q351.2 174.1 352.1 174.1L352.1 174.1Q354.5 174.1 355.6 175.2Q356.8 176.3 356.8 178.2L356.8 178.2ZM351.6 185.7L351.6 185.7Q352.5 185.7 353.4 185.3Q354.2 184.8 354.8 184.0L354.8 184.0L354.8 180.7L353.0 180.7Q350.9 180.7 350.0 181.4Q349.2 182.1 349.2 183.4L349.2 183.4Q349.2 184.5 349.8 185.1Q350.4 185.7 351.6 185.7ZM360.7 169.3L366.6 169.3L366.6 183.9Q366.6 184.8 367.2 185.2Q367.8 185.6 368.7 185.6L368.7 185.6Q369.3 185.6 369.8 185.5Q370.3 185.4 370.8 185.2L370.8 185.2L371.4 186.6Q370.8 186.9 370.1 187.1Q369.3 187.3 368.4 187.3L368.4 187.3Q366.7 187.3 365.6 186.3Q364.6 185.4 364.6 183.8L364.6 183.8L364.6 170.9L360.7 170.9L360.7 169.3Z M398.2 178.7L398.2 178.7Q398.2 176.5 397.7 175.2Q397.2 173.9 396.5 173.3Q395.8 172.6 394.9 172.4Q394.0 172.2 393.1 172.2L393.1 172.2L391.2 172.2L391.2 185.3L393.2 185.3Q394.1 185.3 394.9 185.1Q395.8 184.8 396.6 184.0Q397.3 183.3 397.7 182.0Q398.2 180.7 398.2 178.7ZM400.4 178.7L400.4 178.7Q400.4 180.7 399.9 182.2Q399.5 183.6 398.7 184.6Q398.0 185.5 397.0 186.1Q396.1 186.6 395.0 186.8Q393.9 187 392.9 187L392.9 187L389.1 187L389.1 170.5L392.7 170.5Q394.1 170.5 395.5 170.8Q396.9 171.1 398.0 172.0Q399.1 172.9 399.7 174.5Q400.4 176.1 400.4 178.7ZM413.5 181.4L405.0 181.4Q405.1 182.9 405.6 183.8Q406.1 184.7 406.9 185.2Q407.8 185.6 408.7 185.6L408.7 185.6Q409.7 185.6 410.5 185.3Q411.3 185.0 412.1 184.5L412.1 184.5L413.1 185.8Q412.2 186.5 411.0 186.9Q409.9 187.3 408.7 187.3L408.7 187.3Q406.9 187.3 405.6 186.4Q404.3 185.6 403.6 184.1Q402.9 182.7 402.9 180.7L402.9 180.7Q402.9 178.8 403.6 177.3Q404.3 175.8 405.5 175.0Q406.8 174.1 408.4 174.1L408.4 174.1Q410.0 174.1 411.2 174.8Q412.3 175.6 413.0 177.0Q413.6 178.4 413.6 180.3L413.6 180.3Q413.6 180.6 413.6 180.9Q413.6 181.2 413.5 181.4L413.5 181.4ZM408.5 175.8L408.5 175.8Q407.1 175.8 406.1 176.8Q405.2 177.7 405.0 179.8L405.0 179.8L411.6 179.8Q411.6 177.8 410.7 176.8Q409.9 175.8 408.5 175.8ZM421.7 185.6L421.7 185.6Q423.1 185.6 424.0 185.1Q424.8 184.5 424.8 183.6L424.8 183.6Q424.8 183.0 424.6 182.6Q424.4 182.2 423.7 181.9Q423.1 181.5 421.8 181.2L421.8 181.2Q420.4 180.9 419.5 180.4Q418.5 180.0 418.0 179.3Q417.4 178.6 417.4 177.5L417.4 177.5Q417.4 176.5 418.0 175.7Q418.7 174.9 419.7 174.5Q420.8 174.1 422.2 174.1L422.2 174.1Q423.8 174.1 424.9 174.5Q426.0 174.9 426.8 175.5L426.8 175.5L425.9 176.9Q425.2 176.4 424.4 176.1Q423.5 175.7 422.3 175.7L422.3 175.7Q420.8 175.7 420.2 176.2Q419.5 176.7 419.5 177.4L419.5 177.4Q419.5 177.9 419.8 178.3Q420.1 178.7 420.9 179.0Q421.6 179.3 422.9 179.6L422.9 179.6Q424.1 179.9 425.0 180.4Q426.0 180.8 426.5 181.6Q427.0 182.3 427.0 183.5L427.0 183.5Q427.0 184.9 426.2 185.7Q425.5 186.5 424.2 186.9Q423.0 187.3 421.7 187.3L421.7 187.3Q420.0 187.3 418.7 186.8Q417.5 186.3 416.7 185.6L416.7 185.6L417.9 184.2Q418.6 184.9 419.6 185.2Q420.6 185.6 421.7 185.6ZM431.9 174.4L437.7 174.4L437.7 185.4L441.3 185.4L441.3 187L431.8 187L431.8 185.4L435.7 185.4L435.7 176.0L431.9 176.0L431.9 174.4ZM436.1 168.4L436.1 168.4Q436.8 168.4 437.2 168.9Q437.6 169.3 437.6 169.9L437.6 169.9Q437.6 170.5 437.2 170.9Q436.8 171.3 436.1 171.3L436.1 171.3Q435.4 171.3 435.0 170.9Q434.6 170.5 434.6 169.9L434.6 169.9Q434.6 169.3 435.0 168.9Q435.4 168.4 436.1 168.4ZM455.5 173.0L455.5 173.0L456.1 174.9Q455.3 175.2 454.4 175.2Q453.5 175.3 452.4 175.3L452.4 175.3Q453.5 175.8 454.1 176.6Q454.6 177.4 454.6 178.5L454.6 178.5Q454.6 179.7 454.0 180.7Q453.5 181.7 452.4 182.2Q451.4 182.8 449.9 182.8L449.9 182.8Q449.2 182.8 448.8 182.7Q448.4 182.6 448.0 182.5L448.0 182.5Q447.7 182.7 447.5 183.1Q447.3 183.4 447.3 183.7L447.3 183.7Q447.3 184.2 447.7 184.5Q448.0 184.8 449.0 184.8L449.0 184.8L451.3 184.8Q452.6 184.8 453.6 185.3Q454.6 185.7 455.2 186.5Q455.7 187.3 455.7 188.2L455.7 188.2Q455.7 190.1 454.2 191.1Q452.6 192.1 449.7 192.1L449.7 192.1Q447.7 192.1 446.5 191.7Q445.4 191.3 444.9 190.4Q444.4 189.6 444.4 188.3L444.4 188.3L446.2 188.3Q446.2 189.0 446.5 189.5Q446.8 190.0 447.5 190.2Q448.3 190.4 449.7 190.4L449.7 190.4Q451.1 190.4 452.0 190.2Q452.9 190.0 453.3 189.5Q453.7 189.1 453.7 188.4L453.7 188.4Q453.7 187.5 452.9 187.0Q452.1 186.6 450.9 186.6L450.9 186.6L448.6 186.6Q447.0 186.6 446.2 185.8Q445.4 185.1 445.4 184.2L445.4 184.2Q445.4 183.6 445.8 183.0Q446.1 182.4 446.8 182.0L446.8 182.0Q445.7 181.4 445.2 180.5Q444.7 179.7 444.7 178.5L444.7 178.5Q444.7 177.2 445.3 176.2Q446.0 175.2 447.1 174.7Q448.2 174.1 449.7 174.1L449.7 174.1Q451.3 174.1 452.3 173.9Q453.3 173.8 454.0 173.6Q454.7 173.3 455.5 173.0ZM449.7 175.6L449.7 175.6Q448.2 175.6 447.5 176.4Q446.7 177.2 446.7 178.5L446.7 178.5Q446.7 179.8 447.5 180.6Q448.2 181.4 449.8 181.4L449.8 181.4Q451.1 181.4 451.8 180.6Q452.5 179.9 452.5 178.5L452.5 178.5Q452.5 177.0 451.8 176.3Q451.1 175.6 449.7 175.6ZM461.1 187L459.1 187L459.1 174.4L460.8 174.4L461.0 176.1Q461.8 175.1 462.9 174.6Q464.1 174.1 465.2 174.1L465.2 174.1Q467.0 174.1 467.9 175.1Q468.7 176.1 468.7 177.8L468.7 177.8L468.7 187L466.7 187L466.7 179.3Q466.7 178.0 466.6 177.2Q466.4 176.4 466.0 176.1Q465.5 175.7 464.6 175.7L464.6 175.7Q463.8 175.7 463.2 176.0Q462.5 176.3 462.0 176.8Q461.5 177.3 461.1 177.8L461.1 177.8L461.1 187Z M496.7 172.2L489.7 172.2L489.7 177.7L495.8 177.7L495.8 179.5L489.7 179.5L489.7 185.3L497.2 185.3L497.2 187L487.6 187L487.6 170.5L497.0 170.5L496.7 172.2ZM502.9 187L500.9 187L500.9 174.4L502.6 174.4L502.8 176.1Q503.5 175.1 504.7 174.6Q505.8 174.1 506.9 174.1L506.9 174.1Q508.8 174.1 509.6 175.1Q510.5 176.1 510.5 177.8L510.5 177.8L510.5 187L508.5 187L508.5 179.3Q508.5 178.0 508.3 177.2Q508.2 176.4 507.7 176.1Q507.3 175.7 506.3 175.7L506.3 175.7Q505.6 175.7 504.9 176.0Q504.3 176.3 503.8 176.8Q503.2 177.3 502.9 177.8L502.9 177.8L502.9 187ZM525.1 173.0L525.1 173.0L525.7 174.9Q524.9 175.2 524.0 175.2Q523.1 175.3 522.0 175.3L522.0 175.3Q523.1 175.8 523.7 176.6Q524.2 177.4 524.2 178.5L524.2 178.5Q524.2 179.7 523.6 180.7Q523.1 181.7 522.0 182.2Q521.0 182.8 519.5 182.8L519.5 182.8Q518.8 182.8 518.4 182.7Q518.0 182.6 517.6 182.5L517.6 182.5Q517.3 182.7 517.1 183.1Q516.9 183.4 516.9 183.7L516.9 183.7Q516.9 184.2 517.3 184.5Q517.6 184.8 518.6 184.8L518.6 184.8L520.9 184.8Q522.2 184.8 523.2 185.3Q524.2 185.7 524.8 186.5Q525.3 187.3 525.3 188.2L525.3 188.2Q525.3 190.1 523.8 191.1Q522.2 192.1 519.3 192.1L519.3 192.1Q517.3 192.1 516.1 191.7Q515.0 191.3 514.5 190.4Q514.0 189.6 514.0 188.3L514.0 188.3L515.8 188.3Q515.8 189.0 516.1 189.5Q516.4 190.0 517.1 190.2Q517.9 190.4 519.3 190.4L519.3 190.4Q520.7 190.4 521.6 190.2Q522.5 190.0 522.9 189.5Q523.3 189.1 523.3 188.4L523.3 188.4Q523.3 187.5 522.5 187.0Q521.7 186.6 520.5 186.6L520.5 186.6L518.2 186.6Q516.6 186.6 515.8 185.8Q515.0 185.1 515.0 184.2L515.0 184.2Q515.0 183.6 515.4 183.0Q515.7 182.4 516.4 182.0L516.4 182.0Q515.3 181.4 514.8 180.5Q514.3 179.7 514.3 178.5L514.3 178.5Q514.3 177.2 514.9 176.2Q515.6 175.2 516.7 174.7Q517.8 174.1 519.3 174.1L519.3 174.1Q520.9 174.1 521.9 173.9Q522.9 173.8 523.6 173.6Q524.3 173.3 525.1 173.0ZM519.3 175.6L519.3 175.6Q517.8 175.6 517.1 176.4Q516.3 177.2 516.3 178.5L516.3 178.5Q516.3 179.8 517.1 180.6Q517.8 181.4 519.4 181.4L519.4 181.4Q520.7 181.4 521.4 180.6Q522.1 179.9 522.1 178.5L522.1 178.5Q522.1 177.0 521.4 176.3Q520.7 175.6 519.3 175.6ZM529.3 174.4L535.1 174.4L535.1 185.4L538.7 185.4L538.7 187L529.2 187L529.2 185.4L533.1 185.4L533.1 176.0L529.3 176.0L529.3 174.4ZM533.5 168.4L533.5 168.4Q534.2 168.4 534.6 168.9Q535.0 169.3 535.0 169.9L535.0 169.9Q535.0 170.5 534.6 170.9Q534.2 171.3 533.5 171.3L533.5 171.3Q532.9 171.3 532.5 170.9Q532.1 170.5 532.1 169.9L532.1 169.9Q532.1 169.3 532.5 168.9Q532.9 168.4 533.5 168.4ZM544.7 187L542.7 187L542.7 174.4L544.4 174.4L544.5 176.1Q545.3 175.1 546.4 174.6Q547.6 174.1 548.7 174.1L548.7 174.1Q550.6 174.1 551.4 175.1Q552.3 176.1 552.3 177.8L552.3 177.8L552.3 187L550.2 187L550.2 179.3Q550.2 178.0 550.1 177.2Q549.9 176.4 549.5 176.1Q549.0 175.7 548.1 175.7L548.1 175.7Q547.3 175.7 546.7 176.0Q546.0 176.3 545.5 176.8Q545.0 177.3 544.7 177.8L544.7 177.8L544.7 187ZM566.7 181.4L558.2 181.4Q558.2 182.9 558.7 183.8Q559.2 184.7 560.1 185.2Q560.9 185.6 561.9 185.6L561.9 185.6Q562.8 185.6 563.6 185.3Q564.4 185.0 565.2 184.5L565.2 184.5L566.2 185.8Q565.3 186.5 564.1 186.9Q563.0 187.3 561.8 187.3L561.8 187.3Q560.0 187.3 558.7 186.4Q557.4 185.6 556.7 184.1Q556.0 182.7 556.0 180.7L556.0 180.7Q556.0 178.8 556.7 177.3Q557.4 175.8 558.6 175.0Q559.9 174.1 561.6 174.1L561.6 174.1Q563.2 174.1 564.3 174.8Q565.5 175.6 566.1 177.0Q566.7 178.4 566.7 180.3L566.7 180.3Q566.7 180.6 566.7 180.9Q566.7 181.2 566.7 181.4L566.7 181.4ZM561.6 175.8L561.6 175.8Q560.2 175.8 559.2 176.8Q558.3 177.7 558.2 179.8L558.2 179.8L564.8 179.8Q564.7 177.8 563.9 176.8Q563.0 175.8 561.6 175.8ZM580.6 181.4L572.1 181.4Q572.1 182.9 572.6 183.8Q573.1 184.7 574.0 185.2Q574.8 185.6 575.8 185.6L575.8 185.6Q576.7 185.6 577.5 185.3Q578.3 185.0 579.1 184.5L579.1 184.5L580.1 185.8Q579.2 186.5 578.1 186.9Q576.9 187.3 575.7 187.3L575.7 187.3Q573.9 187.3 572.6 186.4Q571.3 185.6 570.6 184.1Q570.0 182.7 570.0 180.7L570.0 180.7Q570.0 178.8 570.6 177.3Q571.3 175.8 572.6 175.0Q573.8 174.1 575.5 174.1L575.5 174.1Q577.1 174.1 578.2 174.8Q579.4 175.6 580.0 177.0Q580.6 178.4 580.6 180.3L580.6 180.3Q580.6 180.6 580.6 180.9Q580.6 181.2 580.6 181.4L580.6 181.4ZM575.5 175.8L575.5 175.8Q574.1 175.8 573.2 176.8Q572.2 177.7 572.1 179.8L572.1 179.8L578.7 179.8Q578.6 177.8 577.8 176.8Q576.9 175.8 575.5 175.8ZM591.1 187L584.5 187L584.5 185.5L586.5 185.5L586.5 175.9L584.5 175.9L584.5 174.4L588.0 174.4L588.4 177.4Q589.1 175.8 590.2 174.9Q591.2 174.1 592.9 174.1L592.9 174.1Q593.5 174.1 593.9 174.2Q594.3 174.2 594.7 174.4L594.7 174.4L594.4 178.6L592.8 178.6L592.8 175.9Q592.7 175.9 592.7 175.9L592.7 175.9Q591.2 175.9 590.2 177.0Q589.1 178.0 588.5 180.1L588.5 180.1L588.5 185.5L591.1 185.5L591.1 187ZM604.0 175.5L602.2 175.5L601.9 169.3L604.4 169.3L604.0 175.5Z "/></g><g mask="url(#satori_om-id)" clip-path="url(#satori_cp-id)"><path fill="#A1A1AA" d="M617.2 183.0L617.2 183.0Q618.0 183.0 618.6 183.6Q619.1 184.2 619.1 184.9L619.1 184.9Q619.1 185.4 619.0 185.8Q618.9 186.3 618.7 186.9L618.7 186.9L616.7 191.3L614.9 191.3L616.0 186.6Q615.2 186.0 615.2 185.0L615.2 185.0Q615.2 184.2 615.8 183.6Q616.4 183.0 617.2 183.0ZM617.2 174.7L617.2 174.7Q618.0 174.7 618.6 175.3Q619.1 175.9 619.1 176.7L619.1 176.7Q619.1 177.5 618.6 178.0Q618.0 178.6 617.2 178.6L617.2 178.6Q616.4 178.6 615.8 178.0Q615.2 177.5 615.2 176.7L615.2 176.7Q615.2 176.1 615.5 175.7Q615.7 175.3 616.2 175.0Q616.6 174.7 617.2 174.7Z "/></g><mask id="satori_om-id-2"><rect x="64" y="242" width="1072" height="324" fill="#fff" mask="url(#satori_om-id)"/></mask><defs><clipPath id="satori_bc-id-2-0" clip-path="url(#satori_cp-id)"><path x="64" y="242" width="512" height="324" d="M88,242 h464 a24,24 0 0 1 24,24 v276 a24,24 0 0 1 -24,24 h-464 a24,24 0 0 1 -24,-24 v-276 a24,24 0 0 1 24,-24"/></clipPath></defs><mask id="satori_om-id-2-0"><rect x="65" y="243" width="510" height="322" fill="#fff" mask="url(#satori_om-id)"/><path width="512" height="324" fill="none" stroke="#000" stroke-width="2" d="M71.029,249.029 A24,24 0 0 1 88,242 h464 a24,24 0 0 1 24,24 v276 a24,24 0 0 1 -24,24 h-464 a24,24 0 0 1 -24,-24 v-276 A24,24 0 0 1 71.029,249.029"/></mask><path x="64" y="242" width="512" height="324" fill="rgba(255, 255, 255, 0.02)" d="M88,242 h464 a24,24 0 0 1 24,24 v276 a24,24 0 0 1 -24,24 h-464 a24,24 0 0 1 -24,-24 v-276 a24,24 0 0 1 24,-24" clip-path="url(#satori_cp-id)" mask="url(#satori_om-id)"/><path width="512" height="324" clip-path="url(#satori_bc-id-2-0)" fill="none" stroke="rgba(255, 255, 255, 0.08)" stroke-width="2" d="M71.029,249.029 A24,24 0 0 1 88,242 h464 a24,24 0 0 1 24,24 v276 a24,24 0 0 1 -24,24 h-464 a24,24 0 0 1 -24,-24 v-276 A24,24 0 0 1 71.029,249.029"/><mask id="satori_om-id-2-0-0"><rect x="97" y="275" width="446" height="18" fill="#fff" mask="url(#satori_om-id)"/></mask><g mask="url(#satori_om-id)" clip-path="url(#satori_cp-id)"><path fill="#71717A" d="M104.7 278.1L98.7 290.4L97.7 290.0L103.7 277.7L104.7 278.1ZM114.5 278.1L108.5 290.4L107.5 290.0L113.5 277.7L114.5 278.1Z M134.1 280.4L131.2 280.4L131.2 289L130.0 289L130.0 280.4L127.0 280.4L127.0 279.4L134.2 279.4L134.1 280.4ZM143.3 280.4L139.2 280.4L139.2 283.6L142.7 283.6L142.7 284.6L139.2 284.6L139.2 288.0L143.6 288.0L143.6 289L138.0 289L138.0 279.4L143.4 279.4L143.3 280.4ZM151.0 279.2L151.0 279.2Q152.0 279.2 152.6 279.4Q153.2 279.7 153.8 280.1L153.8 280.1L153.1 280.9Q152.7 280.6 152.2 280.4Q151.7 280.2 151.1 280.2L151.1 280.2Q150.3 280.2 149.6 280.6Q149.0 281.0 148.6 281.8Q148.1 282.7 148.1 284.2L148.1 284.2Q148.1 285.6 148.5 286.5Q148.9 287.3 149.6 287.7Q150.3 288.1 151.1 288.1L151.1 288.1Q151.9 288.1 152.4 287.9Q152.9 287.6 153.3 287.3L153.3 287.3L153.9 288.1Q153.5 288.5 152.8 288.8Q152.1 289.2 151.1 289.2L151.1 289.2Q149.9 289.2 148.9 288.6Q148.0 288.0 147.4 286.9Q146.9 285.8 146.9 284.2L146.9 284.2Q146.9 282.6 147.5 281.4Q148.0 280.3 149.0 279.8Q149.9 279.2 151.0 279.2ZM163.0 289L161.8 289L161.8 284.4L158.2 284.4L158.2 289L157.0 289L157.0 279.4L158.2 279.4L158.2 283.4L161.8 283.4L161.8 279.4L163.0 279.4L163.0 289ZM173.3 291.5L166.3 291.5L166.3 290.5L173.3 290.5L173.3 291.5ZM183.1 284.2L183.1 284.2Q183.1 285.6 182.8 286.8Q182.4 287.9 181.6 288.5Q180.8 289.2 179.6 289.2L179.6 289.2Q178.4 289.2 177.6 288.5Q176.8 287.9 176.4 286.8Q176.1 285.7 176.1 284.2L176.1 284.2Q176.1 282.7 176.4 281.6Q176.8 280.5 177.6 279.8Q178.4 279.2 179.6 279.2L179.6 279.2Q180.8 279.2 181.6 279.8Q182.4 280.5 182.8 281.6Q183.1 282.7 183.1 284.2ZM181.9 284.2L181.9 284.2Q181.9 282.3 181.3 281.2Q180.8 280.2 179.6 280.2L179.6 280.2Q178.4 280.2 177.9 281.3Q177.3 282.3 177.3 284.2L177.3 284.2Q177.3 286.1 177.9 287.1Q178.4 288.1 179.6 288.1L179.6 288.1Q180.8 288.1 181.3 287.1Q181.9 286.1 181.9 284.2ZM192.7 282.1L192.7 282.1Q192.7 282.8 192.4 283.3Q192.1 283.9 191.6 284.2Q191.0 284.6 190.4 284.7L190.4 284.7L193.2 289L191.8 289L189.1 284.9L187.8 284.9L187.8 289L186.6 289L186.6 279.4L189.1 279.4Q190.9 279.4 191.8 280.0Q192.7 280.7 192.7 282.1ZM191.4 282.1L191.4 282.1Q191.4 281.1 190.9 280.7Q190.4 280.3 189.2 280.3L189.2 280.3L187.8 280.3L187.8 283.9L189.2 283.9Q190.3 283.9 190.8 283.5Q191.4 283.1 191.4 282.1ZM201.3 286.3L201.3 286.3Q201.3 285.6 201.0 285.2Q200.7 284.8 200.2 284.6Q199.8 284.5 199.2 284.5L199.2 284.5L197.6 284.5L197.6 288.0L199.2 288.0Q199.5 288.0 199.9 287.9Q200.3 287.9 200.6 287.7Q200.9 287.5 201.1 287.2Q201.3 286.8 201.3 286.3ZM200.9 281.9L200.9 281.9Q200.9 281.0 200.4 280.7Q199.9 280.3 199.0 280.3L199.0 280.3L197.6 280.3L197.6 283.5L199.1 283.5Q200.0 283.5 200.4 283.1Q200.9 282.7 200.9 281.9ZM202.6 286.2L202.6 286.2Q202.6 287.0 202.2 287.6Q201.9 288.1 201.4 288.4Q200.9 288.7 200.2 288.9Q199.6 289 198.9 289L198.9 289L196.4 289L196.4 279.4L198.7 279.4Q199.4 279.4 200.0 279.5Q200.6 279.6 201.1 279.9Q201.5 280.1 201.8 280.6Q202.1 281.1 202.1 281.8L202.1 281.8Q202.1 282.4 201.9 282.8Q201.6 283.3 201.2 283.5Q200.8 283.8 200.3 283.9L200.3 283.9Q200.9 284.0 201.4 284.2Q201.9 284.5 202.2 285.0Q202.6 285.4 202.6 286.2ZM206.2 279.4L211.8 279.4L211.8 280.3L209.6 280.3L209.6 288.0L211.8 288.0L211.8 289L206.2 289L206.2 288.0L208.4 288.0L208.4 280.3L206.2 280.3L206.2 279.4ZM222.3 280.4L219.4 280.4L219.4 289L218.2 289L218.2 280.4L215.2 280.4L215.2 279.4L222.4 279.4L222.3 280.4Z "/></g><mask id="satori_om-id-2-0-1"><rect x="97" y="293" width="446" height="240" fill="#fff" mask="url(#satori_om-id)"/></mask><defs><clipPath id="satori_bc-id-2-0-1-0" clip-path="url(#satori_cp-id)"><path x="200" y="293" width="240" height="240" d="M320,293 h0 a120,120 0 0 1 120,120 v0 a120,120 0 0 1 -120,120 h0 a120,120 0 0 1 -120,-120 v0 a120,120 0 0 1 120,-120"/></clipPath></defs><mask id="satori_om-id-2-0-1-0"><rect x="201" y="294" width="238" height="238" fill="#fff" mask="url(#satori_om-id)"/><path width="240" height="240" fill="none" stroke="#000" stroke-width="2" d="M235.147,328.147 A120,120 0 0 1 320,293 h0 a120,120 0 0 1 120,120 v0 a120,120 0 0 1 -120,120 h0 a120,120 0 0 1 -120,-120 v0 A120,120 0 0 1 235.147,328.147"/></mask><path width="240" height="240" clip-path="url(#satori_bc-id-2-0-1-0)" fill="none" stroke="rgba(255,255,255,0.15)" stroke-width="2" stroke-dasharray="2 1" d="M235.147,328.147 A120,120 0 0 1 320,293 h0 a120,120 0 0 1 120,120 v0 a120,120 0 0 1 -120,120 h0 a120,120 0 0 1 -120,-120 v0 A120,120 0 0 1 235.147,328.147"/><mask id="satori_ms-id-2-0-1-0-0-0" maskUnits="userSpaceOnUse"><rect x="0" y="0" width="1200" height="630" fill="#fff"/><path x="290" y="383" width="60" height="60" fill="#000"  stroke-width="0" d="M320,383 h0 a30,30 0 0 1 30,30 v0 a30,30 0 0 1 -30,30 h0 a30,30 0 0 1 -30,-30 v0 a30,30 0 0 1 30,-30" clip-path="url(#satori_cp-id)" mask="url(#satori_om-id)"/></mask><defs><filter id="satori_s-id-2-0-1-0-0-0" x="-666.6666666666667%" y="-666.6666666666667%" width="1433.3333333333335%" height="1433.3333333333335%"><feGaussianBlur stdDeviation="20" result="b"/><feFlood flood-color="rgba(255,255,255,0.3)" in="SourceGraphic" result="f"/><feComposite in="f" in2="b" operator="in"/></filter></defs><g mask="url(#satori_ms-id-2-0-1-0-0-0)" filter="url(#satori_s-id-2-0-1-0-0-0)" opacity="1"><path x="290" y="383" width="60" height="60" fill="#fff" stroke="#fff" stroke-width="0" d="M320,383 h0 a30,30 0 0 1 30,30 v0 a30,30 0 0 1 -30,30 h0 a30,30 0 0 1 -30,-30 v0 a30,30 0 0 1 30,-30" clip-path="url(#satori_cp-id)" mask="url(#satori_om-id)"/></g><mask id="satori_om-id-2-0-1-0-0"><rect x="290" y="383" width="60" height="60" fill="#fff" mask="url(#satori_om-id)"/></mask><path x="290" y="383" width="60" height="60" fill="#ffffff" d="M320,383 h0 a30,30 0 0 1 30,30 v0 a30,30 0 0 1 -30,30 h0 a30,30 0 0 1 -30,-30 v0 a30,30 0 0 1 30,-30" clip-path="url(#satori_cp-id)" mask="url(#satori_om-id)"/><mask id="satori_om-id-2-0-1-0-1"><rect x="309" y="282" width="24" height="24" fill="#fff" mask="url(#satori_om-id)"/></mask><path x="309" y="282" width="24" height="24" fill="#61DAFB" d="M321,282 h0 a12,12 0 0 1 12,12 v0 a12,12 0 0 1 -12,12 h0 a12,12 0 0 1 -12,-12 v0 a12,12 0 0 1 12,-12" clip-path="url(#satori_cp-id)" mask="url(#satori_om-id)"/><mask id="satori_om-id-2-0-1-0-2"><rect x="405" y="478" width="24" height="24" fill="#fff" mask="url(#satori_om-id)"/></mask><path x="405" y="478" width="24" height="24" fill="#3178C6" d="M417,478 h0 a12,12 0 0 1 12,12 v0 a12,12 0 0 1 -12,12 h0 a12,12 0 0 1 -12,-12 v0 a12,12 0 0 1 12,-12" clip-path="url(#satori_cp-id)" mask="url(#satori_om-id)"/><mask id="satori_om-id-2-0-1-0-3"><rect x="211" y="478" width="24" height="24" fill="#fff" mask="url(#satori_om-id)"/></mask><path x="211" y="478" width="24" height="24" fill="#F7DF1E" d="M223,478 h0 a12,12 0 0 1 12,12 v0 a12,12 0 0 1 -12,12 h0 a12,12 0 0 1 -12,-12 v0 a12,12 0 0 1 12,-12" clip-path="url(#satori_cp-id)" mask="url(#satori_om-id)"/><mask id="satori_om-id-2-1"><rect x="600" y="242" width="536" height="324" fill="#fff" mask="url(#satori_om-id)"/></mask><defs><clipPath id="satori_bc-id-2-1-0" clip-path="url(#satori_cp-id)"><path x="600" y="242" width="536" height="142" d="M624,242 h488 a24,24 0 0 1 24,24 v94 a24,24 0 0 1 -24,24 h-488 a24,24 0 0 1 -24,-24 v-94 a24,24 0 0 1 24,-24"/></clipPath></defs><clipPath id="satori_cp-id-2-1-0" clip-path="url(#satori_cp-id)"><path x="600" y="242" width="536" height="142" d="M624,242 h488 a24,24 0 0 1 24,24 v94 a24,24 0 0 1 -24,24 h-488 a24,24 0 0 1 -24,-24 v-94 a24,24 0 0 1 24,-24"/></clipPath><mask id="satori_om-id-2-1-0"><rect x="601" y="243" width="534" height="140" fill="#fff" mask="url(#satori_om-id)"/><path width="536" height="142" fill="none" stroke="#000" stroke-width="2" d="M607.029,249.029 A24,24 0 0 1 624,242 h488 a24,24 0 0 1 24,24 v94 a24,24 0 0 1 -24,24 h-488 a24,24 0 0 1 -24,-24 v-94 A24,24 0 0 1 607.029,249.029"/></mask><path x="600" y="242" width="536" height="142" fill="rgba(255, 255, 255, 0.02)" d="M624,242 h488 a24,24 0 0 1 24,24 v94 a24,24 0 0 1 -24,24 h-488 a24,24 0 0 1 -24,-24 v-94 a24,24 0 0 1 24,-24" clip-path="url(#satori_cp-id)" mask="url(#satori_om-id)"/><path width="536" height="142" clip-path="url(#satori_bc-id-2-1-0)" fill="none" stroke="rgba(255, 255, 255, 0.08)" stroke-width="2" d="M607.029,249.029 A24,24 0 0 1 624,242 h488 a24,24 0 0 1 24,24 v94 a24,24 0 0 1 -24,24 h-488 a24,24 0 0 1 -24,-24 v-94 A24,24 0 0 1 607.029,249.029"/><mask id="satori_om-id-2-1-0-0"><rect x="633" y="275" width="470" height="18" fill="#fff" mask="url(#satori_om-id-2-1-0)"/></mask><g mask="url(#satori_om-id-2-1-0)" clip-path="url(#satori_cp-id-2-1-0)"><path fill="#71717A" d="M640.7 278.1L634.7 290.4L633.7 290.0L639.7 277.7L640.7 278.1ZM650.5 278.1L644.5 290.4L643.5 290.0L649.5 277.7L650.5 278.1Z M669.9 286.3L669.9 286.3Q669.9 287.2 669.5 287.8Q669.1 288.4 668.3 288.8Q667.5 289.2 666.4 289.2L666.4 289.2Q665.3 289.2 664.5 288.8Q663.6 288.5 663.0 287.9L663.0 287.9L663.7 287.1Q664.2 287.6 664.9 287.9Q665.5 288.1 666.4 288.1L666.4 288.1Q667.0 288.1 667.5 287.9Q668.0 287.8 668.3 287.4Q668.7 287.0 668.7 286.4L668.7 286.4Q668.7 285.9 668.5 285.6Q668.3 285.2 667.8 285.0Q667.4 284.7 666.5 284.5L666.5 284.5Q665.6 284.2 664.9 283.8Q664.2 283.5 663.8 283.0Q663.4 282.4 663.4 281.7L663.4 281.7Q663.4 281.0 663.8 280.4Q664.2 279.8 664.9 279.5Q665.6 279.2 666.6 279.2L666.6 279.2Q667.6 279.2 668.3 279.5Q669.0 279.8 669.6 280.3L669.6 280.3L668.9 281.1Q668.4 280.6 667.8 280.4Q667.2 280.2 666.6 280.2L666.6 280.2Q666.1 280.2 665.6 280.4Q665.2 280.5 664.9 280.8Q664.7 281.2 664.7 281.6L664.7 281.6Q664.7 282.1 664.9 282.4Q665.1 282.7 665.6 282.9Q666.2 283.2 667.1 283.4L667.1 283.4Q667.8 283.6 668.5 284.0Q669.1 284.3 669.5 284.9Q669.9 285.4 669.9 286.3ZM680.3 279.4L677.0 285.3L677.0 289L675.8 289L675.8 285.3L672.5 279.4L673.9 279.4L676.4 284.2L679.0 279.4L680.3 279.4ZM689.5 286.3L689.5 286.3Q689.5 287.2 689.1 287.8Q688.7 288.4 687.9 288.8Q687.1 289.2 686.0 289.2L686.0 289.2Q684.9 289.2 684.1 288.8Q683.2 288.5 682.6 287.9L682.6 287.9L683.3 287.1Q683.8 287.6 684.5 287.9Q685.1 288.1 686.0 288.1L686.0 288.1Q686.6 288.1 687.1 287.9Q687.6 287.8 687.9 287.4Q688.3 287.0 688.3 286.4L688.3 286.4Q688.3 285.9 688.1 285.6Q687.9 285.2 687.4 285.0Q687.0 284.7 686.1 284.5L686.1 284.5Q685.2 284.2 684.5 283.8Q683.8 283.5 683.4 283.0Q683.0 282.4 683.0 281.7L683.0 281.7Q683.0 281.0 683.4 280.4Q683.8 279.8 684.5 279.5Q685.2 279.2 686.2 279.2L686.2 279.2Q687.2 279.2 687.9 279.5Q688.6 279.8 689.2 280.3L689.2 280.3L688.5 281.1Q688.0 280.6 687.4 280.4Q686.8 280.2 686.2 280.2L686.2 280.2Q685.7 280.2 685.2 280.4Q684.8 280.5 684.5 280.8Q684.3 281.2 684.3 281.6L684.3 281.6Q684.3 282.1 684.5 282.4Q684.7 282.7 685.2 282.9Q685.8 283.2 686.7 283.4L686.7 283.4Q687.4 283.6 688.1 284.0Q688.7 284.3 689.1 284.9Q689.5 285.4 689.5 286.3ZM699.5 280.4L696.6 280.4L696.6 289L695.4 289L695.4 280.4L692.4 280.4L692.4 279.4L699.6 279.4L699.5 280.4ZM708.7 280.4L704.6 280.4L704.6 283.6L708.1 283.6L708.1 284.6L704.6 284.6L704.6 288.0L709.0 288.0L709.0 289L703.4 289L703.4 279.4L708.8 279.4L708.7 280.4ZM717.1 279.4L718.8 279.4L719.4 289L718.2 289L717.9 284.0Q717.9 283.5 717.9 282.9Q717.8 282.4 717.8 281.9Q717.8 281.4 717.8 281.1L717.8 281.1L717.8 280.5L716.2 287.3L715.0 287.3L713.2 280.5Q713.2 280.7 713.3 281.1Q713.3 281.5 713.3 282.0Q713.3 282.5 713.3 283.0Q713.2 283.5 713.2 284.0L713.2 284.0L713.0 289L711.8 289L712.4 279.4L714.1 279.4L715.6 286.0L717.1 279.4ZM728.9 291.5L721.9 291.5L721.9 290.5L728.9 290.5L728.9 291.5ZM737.5 282.3L737.5 282.3Q737.5 281.6 737.2 281.1Q736.9 280.7 736.4 280.5Q735.9 280.3 735.2 280.3L735.2 280.3L733.8 280.3L733.8 284.4L735.2 284.4Q735.9 284.4 736.4 284.3Q736.9 284.1 737.2 283.6Q737.5 283.2 737.5 282.3ZM738.8 282.3L738.8 282.3Q738.8 283.4 738.3 284.1Q737.8 284.8 737.0 285.1Q736.2 285.4 735.1 285.4L735.1 285.4L733.8 285.4L733.8 289L732.6 289L732.6 279.4L735.1 279.4Q736.8 279.4 737.8 280.1Q738.8 280.8 738.8 282.3ZM747.0 279.4L748.2 279.4L748.2 285.9Q748.2 286.9 747.8 287.6Q747.4 288.3 746.7 288.7Q746.0 289.2 745.0 289.2L745.0 289.2Q744.0 289.2 743.3 288.7Q742.6 288.3 742.2 287.6Q741.8 286.8 741.8 285.9L741.8 285.9L741.8 279.4L743.0 279.4L743.0 285.9Q743.0 287.0 743.5 287.6Q744.0 288.1 745.0 288.1L745.0 288.1Q745.9 288.1 746.4 287.6Q747.0 287.0 747.0 285.9L747.0 285.9L747.0 279.4ZM758.0 289L752.5 289L752.5 279.4L753.7 279.4L753.7 287.9L758.1 287.9L758.0 289ZM767.9 286.3L767.9 286.3Q767.9 287.2 767.5 287.8Q767.1 288.4 766.3 288.8Q765.5 289.2 764.4 289.2L764.4 289.2Q763.3 289.2 762.5 288.8Q761.6 288.5 761.0 287.9L761.0 287.9L761.7 287.1Q762.2 287.6 762.9 287.9Q763.5 288.1 764.4 288.1L764.4 288.1Q765.0 288.1 765.5 287.9Q766.0 287.8 766.3 287.4Q766.7 287.0 766.7 286.4L766.7 286.4Q766.7 285.9 766.5 285.6Q766.3 285.2 765.8 285.0Q765.4 284.7 764.5 284.5L764.5 284.5Q763.6 284.2 762.9 283.8Q762.2 283.5 761.8 283.0Q761.4 282.4 761.4 281.7L761.4 281.7Q761.4 281.0 761.8 280.4Q762.2 279.8 762.9 279.5Q763.6 279.2 764.6 279.2L764.6 279.2Q765.6 279.2 766.3 279.5Q767.0 279.8 767.6 280.3L767.6 280.3L766.9 281.1Q766.4 280.6 765.8 280.4Q765.2 280.2 764.6 280.2L764.6 280.2Q764.1 280.2 763.6 280.4Q763.2 280.5 762.9 280.8Q762.7 281.2 762.7 281.6L762.7 281.6Q762.7 282.1 762.9 282.4Q763.1 282.7 763.6 282.9Q764.2 283.2 765.1 283.4L765.1 283.4Q765.8 283.6 766.5 284.0Q767.1 284.3 767.5 284.9Q767.9 285.4 767.9 286.3ZM777.3 280.4L773.2 280.4L773.2 283.6L776.7 283.6L776.7 284.6L773.2 284.6L773.2 288.0L777.6 288.0L777.6 289L772.0 289L772.0 279.4L777.4 279.4L777.3 280.4Z "/></g><mask id="satori_om-id-2-1-0-1"><rect x="633" y="309" width="470" height="42" fill="#fff" mask="url(#satori_om-id-2-1-0)"/></mask><clipPath id="satori_cp-id-2-1-0-1-0" clip-path="url(#satori_cp-id-2-1-0)"><rect x="633" y="309" width="470" height="42"/></clipPath><mask id="satori_om-id-2-1-0-1-0"><rect x="633" y="309" width="470" height="42" fill="#fff" mask="url(#satori_om-id-2-1-0)"/></mask><image x="633" y="309" width="470" height="42" href="data:image/svg+xml;utf8,%3Csvg  xmlns=%22http://www.w3.org/2000/svg%22 width=%22NaN%22 height=%22NaN%22 viewBox=%220 0 400 120%22%3E%3Cpath d=%22M 0 60 L 80 60 L 110 10 L 140 110 L 170 30 L 210 90 L 240 60 L 400 60%22 fill=%22none%22 stroke=%22%2310B981%22 stroke-width=%224%22%3E%3C/path%3E%3C/svg%3E" preserveAspectRatio="none" clip-path="url(#satori_cp-id-2-1-0-1-0)" mask="url(#satori_om-id-2-1-0-1-0)"/><mask id="satori_om-id-2-1-0-1-0-0"><rect x="633" y="309" width="0" height="42" fill="#fff" mask="url(#satori_om-id-2-1-0)"/></mask><defs><clipPath id="satori_bc-id-2-1-1" clip-path="url(#satori_cp-id)"><path x="600" y="408" width="536" height="158" d="M624,408 h488 a24,24 0 0 1 24,24 v110 a24,24 0 0 1 -24,24 h-488 a24,24 0 0 1 -24,-24 v-110 a24,24 0 0 1 24,-24"/></clipPath></defs><mask id="satori_om-id-2-1-1"><rect x="601" y="409" width="534" height="156" fill="#fff" mask="url(#satori_om-id)"/><path width="536" height="158" fill="none" stroke="#000" stroke-width="2" d="M607.029,415.029 A24,24 0 0 1 624,408 h488 a24,24 0 0 1 24,24 v110 a24,24 0 0 1 -24,24 h-488 a24,24 0 0 1 -24,-24 v-110 A24,24 0 0 1 607.029,415.029"/></mask><path x="600" y="408" width="536" height="158" fill="rgba(255, 255, 255, 0.02)" d="M624,408 h488 a24,24 0 0 1 24,24 v110 a24,24 0 0 1 -24,24 h-488 a24,24 0 0 1 -24,-24 v-110 a24,24 0 0 1 24,-24" clip-path="url(#satori_cp-id)" mask="url(#satori_om-id)"/><path width="536" height="158" clip-path="url(#satori_bc-id-2-1-1)" fill="none" stroke="rgba(255, 255, 255, 0.08)" stroke-width="2" d="M607.029,415.029 A24,24 0 0 1 624,408 h488 a24,24 0 0 1 24,24 v110 a24,24 0 0 1 -24,24 h-488 a24,24 0 0 1 -24,-24 v-110 A24,24 0 0 1 607.029,415.029"/><mask id="satori_om-id-2-1-1-0"><rect x="633" y="432" width="470" height="0" fill="#fff" mask="url(#satori_om-id)"/></mask><g mask="url(#satori_om-id)" clip-path="url(#satori_cp-id)"><path fill="#71717A" d="M640.7 435.1L634.7 447.4L633.7 447.0L639.7 434.7L640.7 435.1ZM650.5 435.1L644.5 447.4L643.5 447.0L649.5 434.7L650.5 435.1Z M667.4 436.2L667.4 436.2Q668.4 436.2 669.0 436.4Q669.6 436.7 670.2 437.1L670.2 437.1L669.5 437.9Q669.1 437.6 668.6 437.4Q668.1 437.2 667.5 437.2L667.5 437.2Q666.7 437.2 666.0 437.6Q665.4 438.0 665.0 438.8Q664.5 439.7 664.5 441.2L664.5 441.2Q664.5 442.6 664.9 443.5Q665.3 444.3 666.0 444.7Q666.7 445.1 667.5 445.1L667.5 445.1Q668.3 445.1 668.8 444.9Q669.3 444.6 669.7 444.3L669.7 444.3L670.3 445.1Q669.9 445.5 669.2 445.8Q668.5 446.2 667.5 446.2L667.5 446.2Q666.3 446.2 665.3 445.6Q664.4 445.0 663.8 443.9Q663.3 442.8 663.3 441.2L663.3 441.2Q663.3 439.6 663.9 438.4Q664.4 437.3 665.4 436.8Q666.3 436.2 667.4 436.2ZM678.4 436.4L679.6 436.4L679.6 442.9Q679.6 443.9 679.2 444.6Q678.8 445.3 678.1 445.7Q677.4 446.2 676.4 446.2L676.4 446.2Q675.4 446.2 674.7 445.7Q674.0 445.3 673.6 444.6Q673.2 443.8 673.2 442.9L673.2 442.9L673.2 436.4L674.4 436.4L674.4 442.9Q674.4 444.0 674.9 444.6Q675.4 445.1 676.4 445.1L676.4 445.1Q677.3 445.1 677.8 444.6Q678.4 444.0 678.4 442.9L678.4 442.9L678.4 436.4ZM689.5 439.1L689.5 439.1Q689.5 439.8 689.2 440.3Q688.9 440.9 688.4 441.2Q687.8 441.6 687.2 441.7L687.2 441.7L690.0 446L688.6 446L685.9 441.9L684.6 441.9L684.6 446L683.4 446L683.4 436.4L685.9 436.4Q687.7 436.4 688.6 437.0Q689.5 437.7 689.5 439.1ZM688.2 439.1L688.2 439.1Q688.2 438.1 687.7 437.7Q687.2 437.3 686.0 437.3L686.0 437.3L684.6 437.3L684.6 440.9L686.0 440.9Q687.1 440.9 687.6 440.5Q688.2 440.1 688.2 439.1ZM699.3 439.1L699.3 439.1Q699.3 439.8 699.0 440.3Q698.7 440.9 698.2 441.2Q697.6 441.6 697.0 441.7L697.0 441.7L699.8 446L698.4 446L695.7 441.9L694.4 441.9L694.4 446L693.2 446L693.2 436.4L695.7 436.4Q697.5 436.4 698.4 437.0Q699.3 437.7 699.3 439.1ZM698.0 439.1L698.0 439.1Q698.0 438.1 697.5 437.7Q697.0 437.3 695.8 437.3L695.8 437.3L694.4 437.3L694.4 440.9L695.8 440.9Q696.9 440.9 697.4 440.5Q698.0 440.1 698.0 439.1ZM708.7 437.4L704.6 437.4L704.6 440.6L708.1 440.6L708.1 441.6L704.6 441.6L704.6 445.0L709.0 445.0L709.0 446L703.4 446L703.4 436.4L708.8 436.4L708.7 437.4ZM718.6 446L716.9 446L713.5 437.5Q713.5 437.7 713.6 438.1Q713.6 438.4 713.6 438.9Q713.7 439.5 713.7 440.0Q713.7 440.6 713.7 441.2L713.7 441.2L713.7 446L712.6 446L712.6 436.4L714.2 436.4L717.7 444.9Q717.7 444.7 717.6 444.1Q717.6 443.6 717.5 442.8Q717.5 442.0 717.5 441.2L717.5 441.2L717.5 436.4L718.6 436.4L718.6 446ZM728.9 437.4L726.0 437.4L726.0 446L724.8 446L724.8 437.4L721.8 437.4L721.8 436.4L729.0 436.4L728.9 437.4ZM738.7 448.5L731.7 448.5L731.7 447.5L738.7 447.5L738.7 448.5ZM748.3 437.4L743.9 437.4L743.9 440.7L747.7 440.7L747.7 441.7L743.9 441.7L743.9 446L742.7 446L742.7 436.4L748.4 436.4L748.3 437.4ZM758.3 441.2L758.3 441.2Q758.3 442.6 758.0 443.8Q757.6 444.9 756.8 445.5Q756.0 446.2 754.8 446.2L754.8 446.2Q753.6 446.2 752.8 445.5Q752.0 444.9 751.6 443.8Q751.3 442.7 751.3 441.2L751.3 441.2Q751.3 439.7 751.6 438.6Q752.0 437.5 752.8 436.8Q753.6 436.2 754.8 436.2L754.8 436.2Q756.0 436.2 756.8 436.8Q757.6 437.5 758.0 438.6Q758.3 439.7 758.3 441.2ZM757.1 441.2L757.1 441.2Q757.1 439.3 756.5 438.2Q756.0 437.2 754.8 437.2L754.8 437.2Q753.6 437.2 753.1 438.3Q752.5 439.3 752.5 441.2L752.5 441.2Q752.5 443.1 753.1 444.1Q753.6 445.1 754.8 445.1L754.8 445.1Q756.0 445.1 756.5 444.1Q757.1 443.1 757.1 441.2ZM765.4 436.2L765.4 436.2Q766.4 436.2 767.0 436.4Q767.6 436.7 768.2 437.1L768.2 437.1L767.5 437.9Q767.1 437.6 766.6 437.4Q766.1 437.2 765.5 437.2L765.5 437.2Q764.7 437.2 764.0 437.6Q763.4 438.0 763.0 438.8Q762.5 439.7 762.5 441.2L762.5 441.2Q762.5 442.6 762.9 443.5Q763.3 444.3 764.0 444.7Q764.7 445.1 765.5 445.1L765.5 445.1Q766.3 445.1 766.8 444.9Q767.3 444.6 767.7 444.3L767.7 444.3L768.3 445.1Q767.9 445.5 767.2 445.8Q766.5 446.2 765.5 446.2L765.5 446.2Q764.3 446.2 763.3 445.6Q762.4 445.0 761.8 443.9Q761.3 442.8 761.3 441.2L761.3 441.2Q761.3 439.6 761.9 438.4Q762.4 437.3 763.4 436.8Q764.3 436.2 765.4 436.2ZM776.4 436.4L777.6 436.4L777.6 442.9Q777.6 443.9 777.2 444.6Q776.8 445.3 776.1 445.7Q775.4 446.2 774.4 446.2L774.4 446.2Q773.4 446.2 772.7 445.7Q772.0 445.3 771.6 444.6Q771.2 443.8 771.2 442.9L771.2 442.9L771.2 436.4L772.4 436.4L772.4 442.9Q772.4 444.0 772.9 444.6Q773.4 445.1 774.4 445.1L774.4 445.1Q775.3 445.1 775.8 444.6Q776.4 444.0 776.4 442.9L776.4 442.9L776.4 436.4ZM787.5 443.3L787.5 443.3Q787.5 444.2 787.1 444.8Q786.7 445.4 785.9 445.8Q785.1 446.2 784.0 446.2L784.0 446.2Q782.9 446.2 782.1 445.8Q781.2 445.5 780.6 444.9L780.6 444.9L781.3 444.1Q781.8 444.6 782.5 444.9Q783.1 445.1 784.0 445.1L784.0 445.1Q784.6 445.1 785.1 444.9Q785.6 444.8 785.9 444.4Q786.3 444.0 786.3 443.4L786.3 443.4Q786.3 442.9 786.1 442.6Q785.9 442.2 785.4 442.0Q785.0 441.7 784.1 441.5L784.1 441.5Q783.2 441.2 782.5 440.8Q781.8 440.5 781.4 440.0Q781.0 439.4 781.0 438.7L781.0 438.7Q781.0 438.0 781.4 437.4Q781.8 436.8 782.5 436.5Q783.2 436.2 784.2 436.2L784.2 436.2Q785.2 436.2 785.9 436.5Q786.6 436.8 787.2 437.3L787.2 437.3L786.5 438.1Q786.0 437.6 785.4 437.4Q784.8 437.2 784.2 437.2L784.2 437.2Q783.7 437.2 783.2 437.4Q782.8 437.5 782.5 437.8Q782.3 438.2 782.3 438.6L782.3 438.6Q782.3 439.1 782.5 439.4Q782.7 439.7 783.2 439.9Q783.8 440.2 784.7 440.4L784.7 440.4Q785.4 440.6 786.1 441.0Q786.7 441.3 787.1 441.9Q787.5 442.4 787.5 443.3Z "/></g><mask id="satori_om-id-2-1-1-1"><rect x="633" y="448" width="470" height="93" fill="#fff" mask="url(#satori_om-id)"/></mask><mask id="satori_om-id-2-1-1-1-0"><rect x="633" y="448" width="470" height="31" fill="#fff" mask="url(#satori_om-id)"/></mask><g mask="url(#satori_om-id)" clip-path="url(#satori_cp-id)"><path fill="#E4E4E7" d="M635.7 471L633.6 471L639.4 455.0L641.7 455.0L647.6 471L645.5 471L643.9 466.5L637.3 466.5L635.7 471ZM637.9 464.7L643.2 464.7L642.1 461.5Q641.8 460.6 641.4 459.3L641.4 459.3Q641.0 458.2 640.5 456.6L640.5 456.6Q640.1 458.2 639.7 459.3L639.7 459.3Q639.3 460.7 639.0 461.5L639.0 461.5L637.9 464.7ZM651.8 471L649.9 471L649.9 459.0L651.7 459.0L651.7 460.8L651.9 460.8Q652.2 459.9 653.1 459.4Q653.9 458.8 655.0 458.8L655.0 458.8Q655.2 458.8 655.5 458.8Q655.8 458.8 656.0 458.9L656.0 458.9L656.0 460.8Q655.9 460.8 655.5 460.7Q655.2 460.7 654.8 460.7L654.8 460.7Q653.9 460.7 653.3 461.0Q652.6 461.4 652.2 462.0Q651.8 462.7 651.8 463.5L651.8 463.5L651.8 471ZM663.0 471.3L663.0 471.3Q661.4 471.3 660.2 470.5Q659.0 469.7 658.3 468.3Q657.6 466.9 657.6 465.1L657.6 465.1Q657.6 463.2 658.3 461.8Q659.0 460.4 660.2 459.6Q661.4 458.8 663.0 458.8L663.0 458.8Q663.9 458.8 664.7 459.1Q665.5 459.3 666.1 459.7Q666.7 460.1 667.2 460.8Q667.7 461.4 667.9 462.2L667.9 462.2L666.1 462.7Q665.9 462.2 665.7 461.8Q665.4 461.5 665.0 461.2Q664.6 460.9 664.1 460.7Q663.6 460.6 663.0 460.6L663.0 460.6Q661.8 460.6 661.1 461.2Q660.3 461.8 659.9 462.8Q659.5 463.9 659.5 465.1L659.5 465.1Q659.5 466.3 659.9 467.3Q660.3 468.3 661.1 468.9Q661.8 469.5 663.0 469.5L663.0 469.5Q663.6 469.5 664.2 469.4Q664.7 469.2 665.0 468.9Q665.4 468.6 665.7 468.2Q666.0 467.8 666.1 467.3L666.1 467.3L668.0 467.8Q667.7 468.6 667.3 469.3Q666.8 469.9 666.1 470.4Q665.5 470.8 664.7 471.0Q663.9 471.3 663.0 471.3ZM672.7 463.8L672.7 463.8L672.7 471L670.7 471L670.7 455.0L672.7 455.0L672.7 461.1Q673.2 460.0 673.9 459.5L673.9 459.5Q674.9 458.8 676.3 458.8L676.3 458.8Q677.5 458.8 678.4 459.3Q679.3 459.8 679.8 460.8Q680.3 461.8 680.3 463.4L680.3 463.4L680.3 471L678.4 471L678.4 463.5Q678.4 462.1 677.7 461.4Q676.9 460.6 675.7 460.6L675.7 460.6Q674.8 460.6 674.1 461.0Q673.5 461.3 673.1 462.1Q672.7 462.8 672.7 463.8ZM685.7 471L683.7 471L683.7 459.0L685.7 459.0L685.7 471ZM684.7 457.0L684.7 457.0Q684.2 457.0 683.8 456.6Q683.4 456.3 683.4 455.7L683.4 455.7Q683.4 455.2 683.8 454.8Q684.2 454.5 684.7 454.5L684.7 454.5Q685.3 454.5 685.7 454.8Q686.1 455.2 686.1 455.7L686.1 455.7Q686.1 456.3 685.7 456.6Q685.3 457.0 684.7 457.0ZM691.3 459.0L693.8 459.0L693.8 460.6L691.3 460.6L691.3 467.9Q691.3 468.7 691.6 469.1Q692.0 469.4 692.7 469.4L692.7 469.4Q692.9 469.4 693.2 469.4Q693.5 469.3 693.7 469.3L693.7 469.3L694.1 470.9Q693.8 471.0 693.4 471.1Q693.1 471.2 692.7 471.2L692.7 471.2Q691.1 471.2 690.3 470.3Q689.4 469.5 689.4 468.0L689.4 468.0L689.4 460.6L687.6 460.6L687.6 459.0L689.4 459.0L689.4 456.1L691.3 456.1L691.3 459.0ZM701.3 471.3L701.3 471.3Q699.6 471.3 698.3 470.5Q697.0 469.7 696.4 468.3Q695.7 466.9 695.7 465.1Q695.7 463.2 696.3 461.8Q697.0 460.4 698.2 459.6Q699.5 458.8 701.1 458.8L701.1 458.8Q702.0 458.8 703.0 459.2Q703.9 459.5 704.7 460.2Q705.4 460.9 705.9 462.0Q706.3 463.2 706.3 464.8L706.3 464.8L706.3 465.7L697.6 465.7Q697.7 466.8 698.1 467.6L698.1 467.6Q698.6 468.6 699.4 469.1Q700.2 469.5 701.3 469.5L701.3 469.5Q702.0 469.5 702.6 469.3Q703.2 469.1 703.6 468.7Q704.0 468.3 704.3 467.7L704.3 467.7L706.1 468.2Q705.8 469.1 705.2 469.8Q704.5 470.5 703.5 470.9Q702.5 471.3 701.3 471.3ZM697.6 464.0L697.6 464.0L704.3 464.0Q704.3 463.2 704.0 462.5L704.0 462.5Q703.6 461.6 702.9 461.1Q702.2 460.6 701.1 460.6Q700.0 460.6 699.2 461.1Q698.5 461.6 698.0 462.5L698.0 462.5Q697.7 463.2 697.6 464.0ZM714.0 471.3L714.0 471.3Q712.3 471.3 711.1 470.5Q709.9 469.7 709.2 468.3Q708.5 466.9 708.5 465.1L708.5 465.1Q708.5 463.2 709.2 461.8Q709.9 460.4 711.1 459.6Q712.3 458.8 714.0 458.8L714.0 458.8Q714.8 458.8 715.6 459.1Q716.4 459.3 717.0 459.7Q717.7 460.1 718.1 460.8Q718.6 461.4 718.8 462.2L718.8 462.2L717.0 462.7Q716.9 462.2 716.6 461.8Q716.3 461.5 715.9 461.2Q715.6 460.9 715.1 460.7Q714.6 460.6 714.0 460.6L714.0 460.6Q712.8 460.6 712.0 461.2Q711.2 461.8 710.8 462.8Q710.5 463.9 710.5 465.1L710.5 465.1Q710.5 466.3 710.8 467.3Q711.2 468.3 712.0 468.9Q712.8 469.5 714.0 469.5L714.0 469.5Q714.6 469.5 715.1 469.4Q715.6 469.2 716.0 468.9Q716.4 468.6 716.6 468.2Q716.9 467.8 717.0 467.3L717.0 467.3L718.9 467.8Q718.6 468.6 718.2 469.3Q717.7 469.9 717.1 470.4Q716.4 470.8 715.6 471.0Q714.9 471.3 714.0 471.3ZM723.9 459.0L726.4 459.0L726.4 460.6L723.9 460.6L723.9 467.9Q723.9 468.7 724.2 469.1Q724.6 469.4 725.3 469.4L725.3 469.4Q725.5 469.4 725.8 469.4Q726.1 469.3 726.3 469.3L726.3 469.3L726.7 470.9Q726.4 471.0 726.0 471.1Q725.7 471.2 725.3 471.2L725.3 471.2Q723.7 471.2 722.8 470.3Q722.0 469.5 722.0 468.0L722.0 468.0L722.0 460.6L720.2 460.6L720.2 459.0L722.0 459.0L722.0 456.1L723.9 456.1L723.9 459.0ZM730.8 471L728.9 471L728.9 459.0L730.8 459.0L730.8 471ZM729.8 457.0L729.8 457.0Q729.3 457.0 728.9 456.6Q728.5 456.3 728.5 455.7L728.5 455.7Q728.5 455.2 728.9 454.8Q729.3 454.5 729.8 454.5L729.8 454.5Q730.4 454.5 730.8 454.8Q731.2 455.2 731.2 455.7L731.2 455.7Q731.2 456.3 730.8 456.6Q730.4 457.0 729.8 457.0ZM736.1 463.8L736.1 463.8L736.1 471L734.2 471L734.2 459.0L736.0 459.0L736.0 461.2Q736.6 460.1 737.3 459.5L737.3 459.5Q738.4 458.8 739.7 458.8L739.7 458.8Q740.9 458.8 741.9 459.3Q742.8 459.8 743.3 460.8Q743.8 461.8 743.8 463.4L743.8 463.4L743.8 471L741.9 471L741.9 463.5Q741.9 462.1 741.1 461.4Q740.4 460.6 739.1 460.6L739.1 460.6Q738.3 460.6 737.6 461.0Q736.9 461.3 736.5 462.1Q736.1 462.8 736.1 463.8ZM752.0 475.7L752.0 475.7Q750.7 475.7 749.7 475.4Q748.8 475.1 748.1 474.5Q747.5 474.0 747.1 473.3L747.1 473.3L748.7 472.3Q748.9 472.6 749.3 473.1Q749.7 473.5 750.3 473.8Q751.0 474.1 752.0 474.1L752.0 474.1Q753.5 474.1 754.4 473.4Q755.3 472.7 755.3 471.2L755.3 471.2L755.3 468.8L755.2 468.8Q755.0 469.1 754.6 469.6Q754.2 470.1 753.5 470.4Q752.8 470.8 751.7 470.8L751.7 470.8Q750.2 470.8 749.1 470.1Q747.9 469.4 747.3 468.1Q746.6 466.8 746.6 464.9L746.6 464.9Q746.6 463.1 747.3 461.7Q747.9 460.3 749.1 459.6Q750.2 458.8 751.7 458.8L751.7 458.8Q752.9 458.8 753.6 459.2Q754.3 459.6 754.6 460.1Q755.0 460.6 755.2 460.9L755.2 460.9L755.4 460.9L755.4 459.0L757.3 459.0L757.3 471.3Q757.3 472.9 756.6 473.8Q755.9 474.8 754.7 475.3Q753.5 475.7 752.0 475.7ZM752.0 469.1L752.0 469.1Q753.1 469.1 753.8 468.6Q754.6 468.1 755.0 467.1Q755.4 466.2 755.4 464.9L755.4 464.9Q755.4 463.6 755.0 462.6Q754.6 461.7 753.8 461.1Q753.1 460.6 752.0 460.6L752.0 460.6Q750.9 460.6 750.1 461.2Q749.3 461.7 748.9 462.7Q748.6 463.7 748.6 464.9L748.6 464.9Q748.6 466.1 749.0 467.1Q749.3 468.0 750.1 468.6Q750.9 469.1 752.0 469.1Z "/></g><mask id="satori_om-id-2-1-1-1-0-1"><rect x="765" y="448" width="296" height="31" fill="#fff" mask="url(#satori_om-id)"/></mask><g mask="url(#satori_om-id)" clip-path="url(#satori_cp-id)"><path fill="#A78BFA" d="M770.8 471.3L770.8 471.3Q769.5 471.3 768.6 470.9Q767.6 470.5 767.0 469.8Q766.4 469.1 766.2 468.1L766.2 468.1L768.0 467.6Q768.3 468.6 769.0 469.1Q769.7 469.6 770.8 469.6L770.8 469.6Q772.0 469.6 772.8 469.0Q773.5 468.5 773.5 467.7L773.5 467.7Q773.5 467.1 773.1 466.7Q772.6 466.3 771.7 466.1L771.7 466.1L769.7 465.6Q768.1 465.2 767.3 464.4Q766.5 463.6 766.5 462.3L766.5 462.3Q766.5 461.3 767.1 460.5Q767.7 459.7 768.7 459.3Q769.7 458.8 771.0 458.8L771.0 458.8Q772.2 458.8 773.1 459.2Q773.9 459.6 774.5 460.2Q775.0 460.9 775.3 461.7L775.3 461.7L773.5 462.2Q773.3 461.5 772.7 461.0Q772.1 460.5 771.0 460.5L771.0 460.5Q769.9 460.5 769.2 461.0Q768.5 461.5 768.5 462.2L768.5 462.2Q768.5 462.9 769.0 463.3Q769.4 463.7 770.5 463.9L770.5 463.9L772.3 464.4Q773.9 464.8 774.7 465.6Q775.5 466.4 775.5 467.6L775.5 467.6Q775.5 468.7 774.9 469.5Q774.3 470.3 773.3 470.8Q772.2 471.3 770.8 471.3ZM783.2 471.3L783.2 471.3Q781.6 471.3 780.3 470.5Q779.1 469.7 778.4 468.3Q777.7 466.9 777.7 465.1L777.7 465.1Q777.7 463.2 778.4 461.8Q779.1 460.4 780.3 459.6Q781.6 458.8 783.2 458.8L783.2 458.8Q784.1 458.8 784.8 459.1Q785.6 459.3 786.3 459.7Q786.9 460.1 787.4 460.8Q787.8 461.4 788.1 462.2L788.1 462.2L786.2 462.7Q786.1 462.2 785.8 461.8Q785.5 461.5 785.2 461.2Q784.8 460.9 784.3 460.7Q783.8 460.6 783.2 460.6L783.2 460.6Q782.0 460.6 781.2 461.2Q780.4 461.8 780.1 462.8Q779.7 463.9 779.7 465.1L779.7 465.1Q779.7 466.3 780.1 467.3Q780.4 468.3 781.2 468.9Q782.0 469.5 783.2 469.5L783.2 469.5Q783.8 469.5 784.3 469.4Q784.8 469.2 785.2 468.9Q785.6 468.6 785.9 468.2Q786.1 467.8 786.3 467.3L786.3 467.3L788.1 467.8Q787.9 468.6 787.4 469.3Q786.9 469.9 786.3 470.4Q785.6 470.8 784.9 471.0Q784.1 471.3 783.2 471.3ZM794.2 471.3L794.2 471.3Q793.1 471.3 792.2 470.8Q791.2 470.4 790.7 469.6Q790.1 468.8 790.1 467.6L790.1 467.6Q790.1 466.6 790.6 465.9Q791.0 465.3 791.6 464.9Q792.3 464.5 793.2 464.3Q794.0 464.2 794.8 464.0L794.8 464.0Q795.9 463.9 796.6 463.8Q797.2 463.8 797.6 463.6Q797.9 463.4 797.9 463.0L797.9 463.0L797.9 462.9Q797.9 462.1 797.6 461.6Q797.3 461.1 796.8 460.8Q796.2 460.5 795.4 460.5L795.4 460.5Q794.5 460.5 793.9 460.8Q793.3 461.1 792.9 461.5Q792.5 461.9 792.3 462.3L792.3 462.3L790.5 461.7Q791.0 460.6 791.7 460.0Q792.5 459.4 793.5 459.1Q794.4 458.8 795.3 458.8L795.3 458.8Q795.9 458.8 796.7 459.0Q797.5 459.1 798.2 459.6Q798.9 460.0 799.4 460.8Q799.8 461.7 799.8 463.1L799.8 463.1L799.8 471L797.9 471L797.9 469.4L797.8 469.4Q797.6 469.8 797.2 470.2Q796.7 470.7 796.0 471.0Q795.3 471.3 794.2 471.3ZM794.6 469.6L794.6 469.6Q795.6 469.6 796.4 469.2Q797.1 468.7 797.5 468.1Q797.9 467.4 797.9 466.7L797.9 466.7L797.9 465.0Q797.8 465.1 797.4 465.2Q797.0 465.4 796.5 465.4Q796.0 465.5 795.5 465.6Q795.0 465.7 794.7 465.7L794.7 465.7Q794.0 465.8 793.4 466.0Q792.8 466.2 792.5 466.6Q792.1 467.0 792.1 467.7L792.1 467.7Q792.1 468.3 792.4 468.7Q792.7 469.1 793.3 469.4Q793.9 469.6 794.6 469.6ZM803.2 455.0L805.2 455.0L805.2 471L803.2 471L803.2 455.0ZM811.9 471.3L811.9 471.3Q810.8 471.3 809.9 470.8Q808.9 470.4 808.4 469.6Q807.8 468.8 807.8 467.6L807.8 467.6Q807.8 466.6 808.2 465.9Q808.6 465.3 809.3 464.9Q810.0 464.5 810.8 464.3Q811.7 464.2 812.5 464.0L812.5 464.0Q813.6 463.9 814.3 463.8Q814.9 463.8 815.3 463.6Q815.6 463.4 815.6 463.0L815.6 463.0L815.6 462.9Q815.6 462.1 815.3 461.6Q815.0 461.1 814.5 460.8Q813.9 460.5 813.1 460.5L813.1 460.5Q812.2 460.5 811.6 460.8Q811.0 461.1 810.6 461.5Q810.2 461.9 810.0 462.3L810.0 462.3L808.2 461.7Q808.6 460.6 809.4 460.0Q810.2 459.4 811.1 459.1Q812.1 458.8 813.0 458.8L813.0 458.8Q813.6 458.8 814.4 459.0Q815.2 459.1 815.9 459.6Q816.6 460.0 817.1 460.8Q817.5 461.7 817.5 463.1L817.5 463.1L817.5 471L815.6 471L815.6 469.4L815.5 469.4Q815.3 469.8 814.8 470.2Q814.4 470.7 813.7 471.0Q812.9 471.3 811.9 471.3ZM812.3 469.6L812.3 469.6Q813.3 469.6 814.1 469.2Q814.8 468.7 815.2 468.1Q815.6 467.4 815.6 466.7L815.6 466.7L815.6 465.0Q815.5 465.1 815.1 465.2Q814.7 465.4 814.2 465.4Q813.7 465.5 813.2 465.6Q812.7 465.7 812.4 465.7L812.4 465.7Q811.7 465.8 811.1 466.0Q810.5 466.2 810.1 466.6Q809.8 467.0 809.8 467.7L809.8 467.7Q809.8 468.3 810.1 468.7Q810.4 469.1 811.0 469.4Q811.5 469.6 812.3 469.6ZM826.5 471.3L826.5 471.3Q825.3 471.3 824.7 470.9Q824.0 470.5 823.6 470.0Q823.2 469.5 823.0 469.1L823.0 469.1L822.8 469.1L822.8 471L820.9 471L820.9 455.0L822.8 455.0L822.8 460.9L823.0 460.9Q823.2 460.6 823.6 460.1Q823.9 459.6 824.6 459.2Q825.3 458.8 826.5 458.8L826.5 458.8Q828.0 458.8 829.1 459.6Q830.3 460.3 830.9 461.7Q831.6 463.1 831.6 465.0L831.6 465.0Q831.6 466.9 830.9 468.3Q830.3 469.7 829.1 470.5Q828.0 471.3 826.5 471.3ZM826.2 469.5L826.2 469.5Q827.3 469.5 828.1 468.9Q828.8 468.3 829.2 467.3Q829.6 466.3 829.6 465.0L829.6 465.0Q829.6 463.8 829.2 462.8Q828.9 461.8 828.1 461.2Q827.3 460.6 826.2 460.6L826.2 460.6Q825.1 460.6 824.3 461.1Q823.6 461.7 823.2 462.7Q822.8 463.7 822.8 465.0L822.8 465.0Q822.8 466.3 823.2 467.4Q823.6 468.4 824.4 469.0Q825.1 469.5 826.2 469.5ZM834.4 455.0L836.3 455.0L836.3 471L834.4 471L834.4 455.0ZM844.8 471.3L844.8 471.3Q843.0 471.3 841.8 470.5Q840.5 469.7 839.8 468.3Q839.1 466.9 839.1 465.1Q839.1 463.2 839.8 461.8Q840.5 460.4 841.7 459.6Q842.9 458.8 844.5 458.8L844.5 458.8Q845.5 458.8 846.4 459.2Q847.3 459.5 848.1 460.2Q848.9 460.9 849.3 462.0Q849.8 463.2 849.8 464.8L849.8 464.8L849.8 465.7L841.1 465.7Q841.1 466.8 841.5 467.6L841.5 467.6Q842.0 468.6 842.8 469.1Q843.7 469.5 844.8 469.5L844.8 469.5Q845.5 469.5 846.1 469.3Q846.6 469.1 847.1 468.7Q847.5 468.3 847.7 467.7L847.7 467.7L849.6 468.2Q849.3 469.1 848.6 469.8Q848.0 470.5 847.0 470.9Q846.0 471.3 844.8 471.3ZM841.1 464.0L841.1 464.0L847.8 464.0Q847.7 463.2 847.5 462.5L847.5 462.5Q847.1 461.6 846.4 461.1Q845.6 460.6 844.5 460.6Q843.5 460.6 842.7 461.1Q841.9 461.6 841.5 462.5L841.5 462.5Q841.2 463.2 841.1 464.0Z M863.2 471.3L863.2 471.3Q861.7 471.3 860.6 470.5Q859.4 469.7 858.8 468.3Q858.1 466.9 858.1 465.0L858.1 465.0Q858.1 463.1 858.8 461.7Q859.4 460.3 860.6 459.6Q861.7 458.8 863.2 458.8L863.2 458.8Q864.4 458.8 865.1 459.2Q865.8 459.6 866.2 460.1Q866.5 460.6 866.7 460.9L866.7 460.9L866.9 460.9L866.9 455.0L868.8 455.0L868.8 471L866.9 471L866.9 469.1L866.7 469.1Q866.5 469.5 866.1 470.0Q865.8 470.5 865.1 470.9Q864.4 471.3 863.2 471.3ZM863.5 469.5L863.5 469.5Q864.6 469.5 865.4 469.0Q866.1 468.4 866.5 467.4Q866.9 466.3 866.9 465.0L866.9 465.0Q866.9 463.7 866.5 462.7Q866.1 461.7 865.4 461.1Q864.6 460.6 863.5 460.6L863.5 460.6Q862.4 460.6 861.6 461.2Q860.9 461.8 860.5 462.8Q860.1 463.8 860.1 465.0L860.1 465.0Q860.1 466.3 860.5 467.3Q860.9 468.3 861.6 468.9Q862.4 469.5 863.5 469.5ZM874.1 471L872.2 471L872.2 459.0L874.1 459.0L874.1 471ZM873.2 457.0L873.2 457.0Q872.6 457.0 872.2 456.6Q871.8 456.3 871.8 455.7L871.8 455.7Q871.8 455.2 872.2 454.8Q872.6 454.5 873.2 454.5L873.2 454.5Q873.7 454.5 874.1 454.8Q874.5 455.2 874.5 455.7L874.5 455.7Q874.5 456.3 874.1 456.6Q873.7 457.0 873.2 457.0ZM881.6 471.3L881.6 471.3Q880.4 471.3 879.4 470.9Q878.4 470.5 877.8 469.8Q877.2 469.1 877.0 468.1L877.0 468.1L878.8 467.6Q879.1 468.6 879.8 469.1Q880.5 469.6 881.6 469.6L881.6 469.6Q882.8 469.6 883.6 469.0Q884.3 468.5 884.3 467.7L884.3 467.7Q884.3 467.1 883.9 466.7Q883.5 466.3 882.6 466.1L882.6 466.1L880.6 465.6Q878.9 465.2 878.1 464.4Q877.4 463.6 877.4 462.3L877.4 462.3Q877.4 461.3 877.9 460.5Q878.5 459.7 879.5 459.3Q880.5 458.8 881.8 458.8L881.8 458.8Q883.0 458.8 883.9 459.2Q884.8 459.6 885.3 460.2Q885.8 460.9 886.1 461.7L886.1 461.7L884.4 462.2Q884.1 461.5 883.5 461.0Q883.0 460.5 881.8 460.5L881.8 460.5Q880.7 460.5 880.0 461.0Q879.3 461.5 879.3 462.2L879.3 462.2Q879.3 462.9 879.8 463.3Q880.3 463.7 881.3 463.9L881.3 463.9L883.1 464.4Q884.8 464.8 885.6 465.6Q886.3 466.4 886.3 467.6L886.3 467.6Q886.3 468.7 885.7 469.5Q885.2 470.3 884.1 470.8Q883.0 471.3 881.6 471.3ZM891.4 459.0L893.9 459.0L893.9 460.6L891.4 460.6L891.4 467.9Q891.4 468.7 891.7 469.1Q892.0 469.4 892.8 469.4L892.8 469.4Q893.0 469.4 893.3 469.4Q893.6 469.3 893.8 469.3L893.8 469.3L894.2 470.9Q893.9 471.0 893.5 471.1Q893.1 471.2 892.8 471.2L892.8 471.2Q891.2 471.2 890.3 470.3Q889.5 469.5 889.5 468.0L889.5 468.0L889.5 460.6L887.7 460.6L887.7 459.0L889.5 459.0L889.5 456.1L891.4 456.1L891.4 459.0ZM898.3 471L896.3 471L896.3 459.0L898.2 459.0L898.2 460.8L898.3 460.8Q898.7 459.9 899.5 459.4Q900.4 458.8 901.4 458.8L901.4 458.8Q901.7 458.8 902.0 458.8Q902.3 458.8 902.4 458.9L902.4 458.9L902.4 460.8Q902.3 460.8 902.0 460.7Q901.7 460.7 901.3 460.7L901.3 460.7Q900.4 460.7 899.7 461.0Q899.0 461.4 898.7 462.0Q898.3 462.7 898.3 463.5L898.3 463.5L898.3 471ZM906.5 471L904.6 471L904.6 459.0L906.5 459.0L906.5 471ZM905.6 457.0L905.6 457.0Q905.0 457.0 904.6 456.6Q904.3 456.3 904.3 455.7L904.3 455.7Q904.3 455.2 904.6 454.8Q905.0 454.5 905.6 454.5L905.6 454.5Q906.2 454.5 906.5 454.8Q906.9 455.2 906.9 455.7L906.9 455.7Q906.9 456.3 906.5 456.6Q906.2 457.0 905.6 457.0ZM915.5 471.3L915.5 471.3Q914.4 471.3 913.7 470.9Q913.0 470.5 912.6 470.0Q912.2 469.5 912.0 469.1L912.0 469.1L911.8 469.1L911.8 471L909.9 471L909.9 455.0L911.9 455.0L911.9 460.9L912.0 460.9Q912.2 460.6 912.6 460.1Q913.0 459.6 913.7 459.2Q914.3 458.8 915.5 458.8L915.5 458.8Q917.0 458.8 918.2 459.6Q919.3 460.3 920.0 461.7Q920.6 463.1 920.6 465.0L920.6 465.0Q920.6 466.9 920.0 468.3Q919.3 469.7 918.2 470.5Q917.0 471.3 915.5 471.3ZM915.2 469.5L915.2 469.5Q916.4 469.5 917.1 468.9Q917.9 468.3 918.3 467.3Q918.6 466.3 918.6 465.0L918.6 465.0Q918.6 463.8 918.3 462.8Q917.9 461.8 917.1 461.2Q916.4 460.6 915.2 460.6L915.2 460.6Q914.1 460.6 913.4 461.1Q912.6 461.7 912.2 462.7Q911.9 463.7 911.9 465.0L911.9 465.0Q911.9 466.3 912.2 467.4Q912.6 468.4 913.4 469.0Q914.1 469.5 915.2 469.5ZM927.5 471.2L927.5 471.2Q926.3 471.2 925.4 470.7Q924.4 470.2 923.9 469.1Q923.4 468.1 923.4 466.6L923.4 466.6L923.4 459.0L925.3 459.0L925.3 466.5Q925.3 467.8 926.1 468.6Q926.8 469.4 928.1 469.4L928.1 469.4Q928.9 469.4 929.6 469.0Q930.3 468.7 930.7 467.9Q931.1 467.2 931.1 466.2L931.1 466.2L931.1 459.0L933.0 459.0L933.0 471L931.2 471L931.2 468.8Q930.6 469.9 929.8 470.5L929.8 470.5Q928.8 471.2 927.5 471.2ZM938.7 459.0L941.2 459.0L941.2 460.6L938.7 460.6L938.7 467.9Q938.7 468.7 939.0 469.1Q939.3 469.4 940.1 469.4L940.1 469.4Q940.3 469.4 940.6 469.4Q940.8 469.3 941.1 469.3L941.1 469.3L941.5 470.9Q941.2 471.0 940.8 471.1Q940.4 471.2 940.0 471.2L940.0 471.2Q938.5 471.2 937.6 470.3Q936.7 469.5 936.7 468.0L936.7 468.0L936.7 460.6L934.9 460.6L934.9 459.0L936.7 459.0L936.7 456.1L938.7 456.1L938.7 459.0ZM948.7 471.3L948.7 471.3Q946.9 471.3 945.7 470.5Q944.4 469.7 943.7 468.3Q943.0 466.9 943.0 465.1Q943.0 463.2 943.7 461.8Q944.4 460.4 945.6 459.6Q946.8 458.8 948.4 458.8L948.4 458.8Q949.4 458.8 950.3 459.2Q951.3 459.5 952.0 460.2Q952.8 460.9 953.2 462.0Q953.7 463.2 953.7 464.8L953.7 464.8L953.7 465.7L945.0 465.7Q945.0 466.8 945.5 467.6L945.5 467.6Q945.9 468.6 946.8 469.1Q947.6 469.5 948.7 469.5L948.7 469.5Q949.4 469.5 950.0 469.3Q950.5 469.1 951.0 468.7Q951.4 468.3 951.6 467.7L951.6 467.7L953.5 468.2Q953.2 469.1 952.5 469.8Q951.9 470.5 950.9 470.9Q949.9 471.3 948.7 471.3ZM945.0 464.0L945.0 464.0L951.7 464.0Q951.6 463.2 951.4 462.5L951.4 462.5Q951.0 461.6 950.3 461.1Q949.5 460.6 948.4 460.6Q947.4 460.6 946.6 461.1Q945.8 461.6 945.4 462.5L945.4 462.5Q945.1 463.2 945.0 464.0ZM960.9 471.3L960.9 471.3Q959.5 471.3 958.3 470.5Q957.2 469.7 956.5 468.3Q955.9 466.9 955.9 465.0L955.9 465.0Q955.9 463.1 956.5 461.7Q957.2 460.3 958.3 459.6Q959.5 458.8 961.0 458.8L961.0 458.8Q962.1 458.8 962.8 459.2Q963.5 459.6 963.9 460.1Q964.2 460.6 964.4 460.9L964.4 460.9L964.6 460.9L964.6 455.0L966.5 455.0L966.5 471L964.7 471L964.7 469.1L964.4 469.1Q964.2 469.5 963.9 470.0Q963.5 470.5 962.8 470.9Q962.1 471.3 960.9 471.3ZM961.2 469.5L961.2 469.5Q962.3 469.5 963.1 469.0Q963.8 468.4 964.2 467.4Q964.6 466.3 964.6 465.0L964.6 465.0Q964.6 463.7 964.2 462.7Q963.8 461.7 963.1 461.1Q962.3 460.6 961.2 460.6L961.2 460.6Q960.1 460.6 959.3 461.2Q958.6 461.8 958.2 462.8Q957.8 463.8 957.8 465.0L957.8 465.0Q957.8 466.3 958.2 467.3Q958.6 468.3 959.4 468.9Q960.1 469.5 961.2 469.5Z M980.2 471.3L980.2 471.3Q979.0 471.3 978.0 470.9Q977.0 470.5 976.4 469.8Q975.8 469.1 975.6 468.1L975.6 468.1L977.4 467.6Q977.7 468.6 978.4 469.1Q979.1 469.6 980.2 469.6L980.2 469.6Q981.4 469.6 982.2 469.0Q982.9 468.5 982.9 467.7L982.9 467.7Q982.9 467.1 982.5 466.7Q982.0 466.3 981.2 466.1L981.2 466.1L979.2 465.6Q977.5 465.2 976.7 464.4Q975.9 463.6 975.9 462.3L975.9 462.3Q975.9 461.3 976.5 460.5Q977.1 459.7 978.1 459.3Q979.1 458.8 980.4 458.8L980.4 458.8Q981.6 458.8 982.5 459.2Q983.3 459.6 983.9 460.2Q984.4 460.9 984.7 461.7L984.7 461.7L982.9 462.2Q982.7 461.5 982.1 461.0Q981.6 460.5 980.4 460.5L980.4 460.5Q979.3 460.5 978.6 461.0Q977.9 461.5 977.9 462.2L977.9 462.2Q977.9 462.9 978.4 463.3Q978.9 463.7 979.9 463.9L979.9 463.9L981.7 464.4Q983.4 464.8 984.1 465.6Q984.9 466.4 984.9 467.6L984.9 467.6Q984.9 468.7 984.3 469.5Q983.7 470.3 982.7 470.8Q981.6 471.3 980.2 471.3ZM987.5 475.4L987.5 475.4L988.0 473.7L988.2 473.7Q988.8 473.9 989.3 473.8Q989.8 473.7 990.2 473.3Q990.6 472.9 990.8 472.1L990.8 472.1L991.2 471.1L986.6 459.0L988.7 459.0L991.3 466.1Q991.7 467.2 992.0 468.3L992.0 468.3Q992.1 468.8 992.2 469.2L992.2 469.2Q992.3 468.8 992.4 468.3L992.4 468.3Q992.7 467.2 993.1 466.1L993.1 466.1L995.7 459.0L997.8 459.0L992.5 472.8Q992.2 473.8 991.7 474.4Q991.1 475.0 990.5 475.3Q989.8 475.6 988.9 475.6L988.9 475.6Q988.4 475.6 988.1 475.5Q987.7 475.4 987.5 475.4ZM1004.2 471.3L1004.2 471.3Q1002.9 471.3 1002.0 470.9Q1001.0 470.5 1000.4 469.8Q999.8 469.1 999.5 468.1L999.5 468.1L1001.4 467.6Q1001.6 468.6 1002.4 469.1Q1003.1 469.6 1004.1 469.6L1004.1 469.6Q1005.4 469.6 1006.1 469.0Q1006.9 468.5 1006.9 467.7L1006.9 467.7Q1006.9 467.1 1006.5 466.7Q1006.0 466.3 1005.1 466.1L1005.1 466.1L1003.1 465.6Q1001.5 465.2 1000.7 464.4Q999.9 463.6 999.9 462.3L999.9 462.3Q999.9 461.3 1000.5 460.5Q1001.1 459.7 1002.1 459.3Q1003.1 458.8 1004.4 458.8L1004.4 458.8Q1005.6 458.8 1006.5 459.2Q1007.3 459.6 1007.9 460.2Q1008.4 460.9 1008.7 461.7L1008.7 461.7L1006.9 462.2Q1006.7 461.5 1006.1 461.0Q1005.5 460.5 1004.4 460.5L1004.4 460.5Q1003.3 460.5 1002.6 461.0Q1001.9 461.5 1001.9 462.2L1001.9 462.2Q1001.9 462.9 1002.3 463.3Q1002.8 463.7 1003.9 463.9L1003.9 463.9L1005.7 464.4Q1007.3 464.8 1008.1 465.6Q1008.9 466.4 1008.9 467.6L1008.9 467.6Q1008.9 468.7 1008.3 469.5Q1007.7 470.3 1006.6 470.8Q1005.6 471.3 1004.2 471.3ZM1014.0 459.0L1016.4 459.0L1016.4 460.6L1014.0 460.6L1014.0 467.9Q1014.0 468.7 1014.3 469.1Q1014.6 469.4 1015.4 469.4L1015.4 469.4Q1015.6 469.4 1015.8 469.4Q1016.1 469.3 1016.4 469.3L1016.4 469.3L1016.8 470.9Q1016.5 471.0 1016.1 471.1Q1015.7 471.2 1015.3 471.2L1015.3 471.2Q1013.8 471.2 1012.9 470.3Q1012.0 469.5 1012.0 468.0L1012.0 468.0L1012.0 460.6L1010.2 460.6L1010.2 459.0L1012.0 459.0L1012.0 456.1L1014.0 456.1L1014.0 459.0ZM1023.9 471.3L1023.9 471.3Q1022.2 471.3 1020.9 470.5Q1019.7 469.7 1019.0 468.3Q1018.3 466.9 1018.3 465.1Q1018.3 463.2 1019.0 461.8Q1019.6 460.4 1020.9 459.6Q1022.1 458.8 1023.7 458.8L1023.7 458.8Q1024.7 458.8 1025.6 459.2Q1026.5 459.5 1027.3 460.2Q1028.0 460.9 1028.5 462.0Q1028.9 463.2 1028.9 464.8L1028.9 464.8L1028.9 465.7L1020.3 465.7Q1020.3 466.8 1020.7 467.6L1020.7 467.6Q1021.2 468.6 1022.0 469.1Q1022.9 469.5 1024.0 469.5L1024.0 469.5Q1024.7 469.5 1025.2 469.3Q1025.8 469.1 1026.2 468.7Q1026.7 468.3 1026.9 467.7L1026.9 467.7L1028.8 468.2Q1028.5 469.1 1027.8 469.8Q1027.1 470.5 1026.2 470.9Q1025.2 471.3 1023.9 471.3ZM1020.3 464.0L1020.3 464.0L1027.0 464.0Q1026.9 463.2 1026.6 462.5L1026.6 462.5Q1026.3 461.6 1025.5 461.1Q1024.8 460.6 1023.7 460.6Q1022.6 460.6 1021.9 461.1Q1021.1 461.6 1020.7 462.5L1020.7 462.5Q1020.3 463.2 1020.3 464.0ZM1033.7 471L1031.7 471L1031.7 459.0L1033.6 459.0L1033.6 461.2Q1033.8 460.5 1034.2 460.1L1034.2 460.1Q1034.8 459.4 1035.5 459.1Q1036.2 458.8 1037.0 458.8L1037.0 458.8Q1038.3 458.8 1039.1 459.6L1039.1 459.6Q1039.8 460.2 1040.0 461.2L1040.0 461.2Q1040.3 460.6 1040.7 460.1L1040.7 460.1Q1041.2 459.5 1042.0 459.1Q1042.9 458.8 1043.8 458.8L1043.8 458.8Q1044.9 458.8 1045.7 459.2Q1046.6 459.7 1047.1 460.6Q1047.6 461.5 1047.6 462.9L1047.6 462.9L1047.6 471L1045.7 471L1045.7 463.0Q1045.7 461.7 1044.9 461.1Q1044.2 460.5 1043.2 460.5L1043.2 460.5Q1042.4 460.5 1041.8 460.9Q1041.3 461.2 1040.9 461.8Q1040.6 462.4 1040.6 463.2L1040.6 463.2L1040.6 471L1038.7 471L1038.7 462.8Q1038.7 461.8 1038.0 461.1Q1037.4 460.5 1036.3 460.5L1036.3 460.5Q1035.6 460.5 1035.0 460.9Q1034.4 461.2 1034.0 461.8Q1033.7 462.5 1033.7 463.4L1033.7 463.4L1033.7 471ZM1055.1 471.3L1055.1 471.3Q1053.8 471.3 1052.9 470.9Q1051.9 470.5 1051.3 469.8Q1050.7 469.1 1050.5 468.1L1050.5 468.1L1052.3 467.6Q1052.5 468.6 1053.3 469.1Q1054.0 469.6 1055.0 469.6L1055.0 469.6Q1056.3 469.6 1057.1 469.0Q1057.8 468.5 1057.8 467.7L1057.8 467.7Q1057.8 467.1 1057.4 466.7Q1056.9 466.3 1056.0 466.1L1056.0 466.1L1054.0 465.6Q1052.4 465.2 1051.6 464.4Q1050.8 463.6 1050.8 462.3L1050.8 462.3Q1050.8 461.3 1051.4 460.5Q1052.0 459.7 1053.0 459.3Q1054.0 458.8 1055.3 458.8L1055.3 458.8Q1056.5 458.8 1057.4 459.2Q1058.2 459.6 1058.8 460.2Q1059.3 460.9 1059.6 461.7L1059.6 461.7L1057.8 462.2Q1057.6 461.5 1057.0 461.0Q1056.4 460.5 1055.3 460.5L1055.3 460.5Q1054.2 460.5 1053.5 461.0Q1052.8 461.5 1052.8 462.2L1052.8 462.2Q1052.8 462.9 1053.3 463.3Q1053.7 463.7 1054.8 463.9L1054.8 463.9L1056.6 464.4Q1058.2 464.8 1059.0 465.6Q1059.8 466.4 1059.8 467.6L1059.8 467.6Q1059.8 468.7 1059.2 469.5Q1058.6 470.3 1057.5 470.8Q1056.5 471.3 1055.1 471.3Z "/></g><mask id="satori_om-id-2-1-1-1-1"><rect x="633" y="479" width="470" height="31" fill="#fff" mask="url(#satori_om-id)"/></mask><g mask="url(#satori_om-id)" clip-path="url(#satori_cp-id)"><path fill="#E4E4E7" d="M638.1 502.3L638.1 502.3Q636.9 502.3 636.0 501.8Q635.1 501.4 634.5 500.6Q634.0 499.8 634.0 498.6L634.0 498.6Q634.0 497.6 634.4 496.9Q634.8 496.3 635.5 495.9Q636.1 495.5 637.0 495.3Q637.8 495.2 638.6 495.0L638.6 495.0Q639.7 494.9 640.4 494.8Q641.1 494.8 641.4 494.6Q641.7 494.4 641.7 494.0L641.7 494.0L641.7 493.9Q641.7 493.1 641.4 492.6Q641.2 492.1 640.6 491.8Q640.0 491.5 639.2 491.5L639.2 491.5Q638.3 491.5 637.7 491.8Q637.1 492.1 636.7 492.5Q636.4 492.9 636.2 493.3L636.2 493.3L634.3 492.7Q634.8 491.6 635.6 491.0Q636.3 490.4 637.3 490.1Q638.2 489.8 639.2 489.8L639.2 489.8Q639.8 489.8 640.5 490.0Q641.3 490.1 642.0 490.6Q642.7 491.0 643.2 491.8Q643.7 492.7 643.7 494.1L643.7 494.1L643.7 502L641.8 502L641.8 500.4L641.6 500.4Q641.4 500.8 641.0 501.2Q640.5 501.7 639.8 502.0Q639.1 502.3 638.1 502.3ZM638.4 500.6L638.4 500.6Q639.5 500.6 640.2 500.2Q640.9 499.7 641.3 499.1Q641.7 498.4 641.7 497.7L641.7 497.7L641.7 496.0Q641.6 496.1 641.2 496.2Q640.8 496.4 640.3 496.4Q639.8 496.5 639.3 496.6Q638.8 496.7 638.6 496.7L638.6 496.7Q637.9 496.8 637.2 497.0Q636.6 497.2 636.3 497.6Q635.9 498.0 635.9 498.7L635.9 498.7Q635.9 499.3 636.2 499.7Q636.6 500.1 637.1 500.4Q637.7 500.6 638.4 500.6ZM649.0 494.8L649.0 494.8L649.0 502L647.1 502L647.1 490.0L648.9 490.0L648.9 492.2Q649.4 491.1 650.2 490.5L650.2 490.5Q651.2 489.8 652.6 489.8L652.6 489.8Q653.8 489.8 654.7 490.3Q655.6 490.8 656.1 491.8Q656.7 492.8 656.7 494.4L656.7 494.4L656.7 502L654.7 502L654.7 494.5Q654.7 493.1 654.0 492.4Q653.3 491.6 652.0 491.6L652.0 491.6Q651.2 491.6 650.5 492.0Q649.8 492.3 649.4 493.1Q649.0 493.8 649.0 494.8ZM664.5 502.3L664.5 502.3Q663.1 502.3 661.9 501.5Q660.8 500.7 660.1 499.3Q659.5 497.9 659.5 496.0L659.5 496.0Q659.5 494.1 660.1 492.7Q660.8 491.3 661.9 490.6Q663.1 489.8 664.6 489.8L664.6 489.8Q665.7 489.8 666.4 490.2Q667.1 490.6 667.5 491.1Q667.8 491.6 668.0 491.9L668.0 491.9L668.2 491.9L668.2 486.0L670.1 486.0L670.1 502L668.3 502L668.3 500.1L668.0 500.1Q667.8 500.5 667.5 501.0Q667.1 501.5 666.4 501.9Q665.7 502.3 664.5 502.3ZM664.8 500.5L664.8 500.5Q665.9 500.5 666.7 500.0Q667.4 499.4 667.8 498.4Q668.2 497.3 668.2 496.0L668.2 496.0Q668.2 494.7 667.8 493.7Q667.5 492.7 666.7 492.1Q665.9 491.6 664.8 491.6L664.8 491.6Q663.7 491.6 662.9 492.2Q662.2 492.8 661.8 493.8Q661.4 494.8 661.4 496.0L661.4 496.0Q661.4 497.3 661.8 498.3Q662.2 499.3 663.0 499.9Q663.7 500.5 664.8 500.5Z M684.8 502.3L684.8 502.3Q683.0 502.3 681.8 501.5Q680.5 500.7 679.8 499.3Q679.1 497.9 679.1 496.1Q679.1 494.2 679.8 492.8Q680.5 491.4 681.7 490.6Q682.9 489.8 684.5 489.8L684.5 489.8Q685.5 489.8 686.4 490.2Q687.3 490.5 688.1 491.2Q688.9 491.9 689.3 493.0Q689.8 494.2 689.8 495.8L689.8 495.8L689.8 496.7L681.1 496.7Q681.1 497.8 681.5 498.6L681.5 498.6Q682.0 499.6 682.8 500.1Q683.7 500.5 684.8 500.5L684.8 500.5Q685.5 500.5 686.1 500.3Q686.6 500.1 687.1 499.7Q687.5 499.3 687.7 498.7L687.7 498.7L689.6 499.2Q689.3 500.1 688.6 500.8Q688.0 501.5 687.0 501.9Q686.0 502.3 684.8 502.3ZM681.1 495.0L681.1 495.0L687.8 495.0Q687.7 494.2 687.5 493.5L687.5 493.5Q687.1 492.6 686.3 492.1Q685.6 491.6 684.5 491.6Q683.4 491.6 682.7 492.1Q681.9 492.6 681.5 493.5L681.5 493.5Q681.1 494.2 681.1 495.0ZM693.8 502L691.5 502L695.8 495.8L691.8 490.0L694.0 490.0L695.5 492.3Q696.1 493.2 696.5 494.0L696.5 494.0Q696.7 494.3 696.9 494.7L696.9 494.7Q697.1 494.3 697.2 494.0L697.2 494.0Q697.6 493.2 698.2 492.3L698.2 492.3L699.7 490.0L702.0 490.0L697.9 495.9L702.1 502L699.9 502L698.1 499.3Q697.6 498.4 697.2 497.7L697.2 497.7Q697.0 497.4 696.8 497.1L696.8 497.1Q696.7 497.4 696.5 497.7L696.5 497.7Q696.1 498.4 695.6 499.3L695.6 499.3L693.8 502ZM706.5 506.5L704.5 506.5L704.5 490.0L706.4 490.0L706.4 491.9L706.6 491.9Q706.8 491.6 707.2 491.1Q707.6 490.6 708.2 490.2Q708.9 489.8 710.1 489.8L710.1 489.8Q711.6 489.8 712.8 490.6Q713.9 491.3 714.5 492.7Q715.2 494.1 715.2 496.0L715.2 496.0Q715.2 497.9 714.6 499.3Q713.9 500.7 712.8 501.5Q711.6 502.3 710.1 502.3L710.1 502.3Q709.0 502.3 708.3 501.9Q707.6 501.5 707.2 501.0Q706.8 500.5 706.6 500.1L706.6 500.1L706.5 500.1L706.5 506.5ZM709.8 500.5L709.8 500.5Q711.0 500.5 711.7 499.9Q712.5 499.3 712.9 498.3Q713.2 497.3 713.2 496.0L713.2 496.0Q713.2 494.8 712.9 493.8Q712.5 492.8 711.7 492.2Q711.0 491.6 709.8 491.6L709.8 491.6Q708.7 491.6 708.0 492.1Q707.2 492.7 706.8 493.7Q706.5 494.7 706.5 496.0L706.5 496.0Q706.5 497.3 706.8 498.4Q707.2 499.4 708.0 500.0Q708.7 500.5 709.8 500.5ZM718.0 486.0L719.9 486.0L719.9 502L718.0 502L718.0 486.0ZM728.2 502.3L728.2 502.3Q726.6 502.3 725.4 501.5Q724.1 500.7 723.4 499.3Q722.8 497.9 722.8 496.1L722.8 496.1Q722.8 494.2 723.4 492.8Q724.1 491.4 725.4 490.6Q726.6 489.8 728.2 489.8L728.2 489.8Q729.9 489.8 731.1 490.6Q732.3 491.4 733.0 492.8Q733.7 494.2 733.7 496.1L733.7 496.1Q733.7 497.9 733.0 499.3Q732.3 500.7 731.1 501.5Q729.9 502.3 728.2 502.3ZM728.2 500.5L728.2 500.5Q729.4 500.5 730.2 499.9Q731.0 499.3 731.4 498.3Q731.8 497.3 731.8 496.1L731.8 496.1Q731.8 494.9 731.4 493.9Q731.0 492.8 730.2 492.2Q729.4 491.6 728.2 491.6L728.2 491.6Q727.0 491.6 726.3 492.2Q725.5 492.8 725.1 493.8Q724.7 494.9 724.7 496.1L724.7 496.1Q724.7 497.3 725.1 498.3Q725.5 499.3 726.3 499.9Q727.0 500.5 728.2 500.5ZM738.5 502L736.5 502L736.5 490.0L738.4 490.0L738.4 491.8L738.5 491.8Q738.9 490.9 739.7 490.4Q740.6 489.8 741.6 489.8L741.6 489.8Q741.9 489.8 742.2 489.8Q742.5 489.8 742.6 489.9L742.6 489.9L742.6 491.8Q742.5 491.8 742.2 491.7Q741.9 491.7 741.5 491.7L741.5 491.7Q740.6 491.7 739.9 492.0Q739.2 492.4 738.9 493.0Q738.5 493.7 738.5 494.5L738.5 494.5L738.5 502ZM746.7 502L744.8 502L744.8 490.0L746.7 490.0L746.7 502ZM745.8 488.0L745.8 488.0Q745.2 488.0 744.8 487.6Q744.5 487.3 744.5 486.7L744.5 486.7Q744.5 486.2 744.8 485.8Q745.2 485.5 745.8 485.5L745.8 485.5Q746.4 485.5 746.7 485.8Q747.1 486.2 747.1 486.7L747.1 486.7Q747.1 487.3 746.7 487.6Q746.4 488.0 745.8 488.0ZM752.1 494.8L752.1 494.8L752.1 502L750.1 502L750.1 490.0L752.0 490.0L752.0 492.2Q752.5 491.1 753.3 490.5L753.3 490.5Q754.3 489.8 755.7 489.8L755.7 489.8Q756.9 489.8 757.8 490.3Q758.7 490.8 759.2 491.8Q759.7 492.8 759.7 494.4L759.7 494.4L759.7 502L757.8 502L757.8 494.5Q757.8 493.1 757.1 492.4Q756.4 491.6 755.1 491.6L755.1 491.6Q754.2 491.6 753.6 492.0Q752.9 492.3 752.5 493.1Q752.1 493.8 752.1 494.8ZM768.0 506.7L768.0 506.7Q766.7 506.7 765.7 506.4Q764.7 506.1 764.1 505.5Q763.4 505.0 763.1 504.3L763.1 504.3L764.6 503.3Q764.9 503.6 765.3 504.1Q765.7 504.5 766.3 504.8Q767.0 505.1 768.0 505.1L768.0 505.1Q769.4 505.1 770.4 504.4Q771.3 503.7 771.3 502.2L771.3 502.2L771.3 499.8L771.1 499.8Q770.9 500.1 770.5 500.6Q770.2 501.1 769.5 501.4Q768.8 501.8 767.6 501.8L767.6 501.8Q766.2 501.8 765.0 501.1Q763.9 500.4 763.2 499.1Q762.6 497.8 762.6 495.9L762.6 495.9Q762.6 494.1 763.2 492.7Q763.9 491.3 765.0 490.6Q766.2 489.8 767.7 489.8L767.7 489.8Q768.8 489.8 769.5 490.2Q770.2 490.6 770.6 491.1Q771.0 491.6 771.2 491.9L771.2 491.9L771.4 491.9L771.4 490.0L773.2 490.0L773.2 502.3Q773.2 503.9 772.5 504.8Q771.8 505.8 770.7 506.3Q769.5 506.7 768.0 506.7ZM768.0 500.1L768.0 500.1Q769.0 500.1 769.8 499.6Q770.6 499.1 770.9 498.1Q771.3 497.2 771.3 495.9L771.3 495.9Q771.3 494.6 770.9 493.6Q770.6 492.7 769.8 492.1Q769.1 491.6 768.0 491.6L768.0 491.6Q766.8 491.6 766.1 492.2Q765.3 492.7 764.9 493.7Q764.5 494.7 764.5 495.9L764.5 495.9Q764.5 497.1 764.9 498.1Q765.3 499.0 766.1 499.6Q766.8 500.1 768.0 500.1Z M785.1 490.0L787.5 490.0L787.5 491.6L785.1 491.6L785.1 498.9Q785.1 499.7 785.4 500.1Q785.7 500.4 786.5 500.4L786.5 500.4Q786.7 500.4 787.0 500.4Q787.2 500.3 787.5 500.3L787.5 500.3L787.9 501.9Q787.6 502.0 787.2 502.1Q786.8 502.2 786.4 502.2L786.4 502.2Q784.9 502.2 784.0 501.3Q783.1 500.5 783.1 499.0L783.1 499.0L783.1 491.6L781.3 491.6L781.3 490.0L783.1 490.0L783.1 487.1L785.1 487.1L785.1 490.0ZM792.0 494.8L792.0 494.8L792.0 502L790.0 502L790.0 486.0L792.0 486.0L792.0 492.1Q792.4 491.0 793.2 490.5L793.2 490.5Q794.2 489.8 795.6 489.8L795.6 489.8Q796.8 489.8 797.7 490.3Q798.6 490.8 799.1 491.8Q799.6 492.8 799.6 494.4L799.6 494.4L799.6 502L797.7 502L797.7 494.5Q797.7 493.1 797.0 492.4Q796.2 491.6 795.0 491.6L795.0 491.6Q794.1 491.6 793.4 492.0Q792.7 492.3 792.3 493.1Q792.0 493.8 792.0 494.8ZM808.1 502.3L808.1 502.3Q806.3 502.3 805.1 501.5Q803.8 500.7 803.1 499.3Q802.4 497.9 802.4 496.1Q802.4 494.2 803.1 492.8Q803.8 491.4 805.0 490.6Q806.2 489.8 807.9 489.8L807.9 489.8Q808.8 489.8 809.7 490.2Q810.7 490.5 811.4 491.2Q812.2 491.9 812.6 493.0Q813.1 494.2 813.1 495.8L813.1 495.8L813.1 496.7L804.4 496.7Q804.4 497.8 804.9 498.6L804.9 498.6Q805.3 499.6 806.2 500.1Q807.0 500.5 808.1 500.5L808.1 500.5Q808.8 500.5 809.4 500.3Q810.0 500.1 810.4 499.7Q810.8 499.3 811.0 498.7L811.0 498.7L812.9 499.2Q812.6 500.1 811.9 500.8Q811.3 501.5 810.3 501.9Q809.3 502.3 808.1 502.3ZM804.4 495.0L804.4 495.0L811.1 495.0Q811.0 494.2 810.8 493.5L810.8 493.5Q810.4 492.6 809.7 492.1Q808.9 491.6 807.9 491.6Q806.8 491.6 806.0 492.1Q805.2 492.6 804.8 493.5L804.8 493.5Q804.5 494.2 804.4 495.0Z M827.6 502.3L827.6 502.3Q826.5 502.3 825.8 501.9Q825.1 501.5 824.7 501.0Q824.3 500.5 824.1 500.1L824.1 500.1L823.9 500.1L823.9 502L822.0 502L822.0 486.0L824.0 486.0L824.0 491.9L824.1 491.9Q824.3 491.6 824.7 491.1Q825.1 490.6 825.7 490.2Q826.4 489.8 827.6 489.8L827.6 489.8Q829.1 489.8 830.3 490.6Q831.4 491.3 832.0 492.7Q832.7 494.1 832.7 496.0L832.7 496.0Q832.7 497.9 832.1 499.3Q831.4 500.7 830.3 501.5Q829.1 502.3 827.6 502.3ZM827.3 500.5L827.3 500.5Q828.5 500.5 829.2 499.9Q830.0 499.3 830.4 498.3Q830.7 497.3 830.7 496.0L830.7 496.0Q830.7 494.8 830.4 493.8Q830.0 492.8 829.2 492.2Q828.5 491.6 827.3 491.6L827.3 491.6Q826.2 491.6 825.5 492.1Q824.7 492.7 824.3 493.7Q824.0 494.7 824.0 496.0L824.0 496.0Q824.0 497.3 824.3 498.4Q824.7 499.4 825.5 500.0Q826.2 500.5 827.3 500.5ZM835.5 486.0L837.4 486.0L837.4 502L835.5 502L835.5 486.0ZM845.9 502.3L845.9 502.3Q844.1 502.3 842.9 501.5Q841.6 500.7 840.9 499.3Q840.3 497.9 840.3 496.1Q840.3 494.2 840.9 492.8Q841.6 491.4 842.8 490.6Q844.0 489.8 845.7 489.8L845.7 489.8Q846.6 489.8 847.5 490.2Q848.5 490.5 849.2 491.2Q850.0 491.9 850.4 493.0Q850.9 494.2 850.9 495.8L850.9 495.8L850.9 496.7L842.2 496.7Q842.3 497.8 842.7 498.6L842.7 498.6Q843.1 499.6 844.0 500.1Q844.8 500.5 845.9 500.5L845.9 500.5Q846.6 500.5 847.2 500.3Q847.8 500.1 848.2 499.7Q848.6 499.3 848.8 498.7L848.8 498.7L850.7 499.2Q850.4 500.1 849.8 500.8Q849.1 501.5 848.1 501.9Q847.1 502.3 845.9 502.3ZM842.2 495.0L842.2 495.0L848.9 495.0Q848.9 494.2 848.6 493.5L848.6 493.5Q848.2 492.6 847.5 492.1Q846.7 491.6 845.7 491.6Q844.6 491.6 843.8 492.1Q843.0 492.6 842.6 493.5L842.6 493.5Q842.3 494.2 842.2 495.0ZM858.7 502.3L858.7 502.3Q857.0 502.3 855.7 501.5Q854.5 500.7 853.8 499.3Q853.1 497.9 853.1 496.1Q853.1 494.2 853.8 492.8Q854.4 491.4 855.6 490.6Q856.9 489.8 858.5 489.8L858.5 489.8Q859.4 489.8 860.4 490.2Q861.3 490.5 862.1 491.2Q862.8 491.9 863.3 493.0Q863.7 494.2 863.7 495.8L863.7 495.8L863.7 496.7L855.0 496.7Q855.1 497.8 855.5 498.6L855.5 498.6Q856.0 499.6 856.8 500.1Q857.6 500.5 858.7 500.5L858.7 500.5Q859.4 500.5 860.0 500.3Q860.6 500.1 861.0 499.7Q861.4 499.3 861.7 498.7L861.7 498.7L863.5 499.2Q863.2 500.1 862.6 500.8Q861.9 501.5 860.9 501.9Q860.0 502.3 858.7 502.3ZM855.1 495.0L855.1 495.0L861.8 495.0Q861.7 494.2 861.4 493.5L861.4 493.5Q861.0 492.6 860.3 492.1Q859.6 491.6 858.5 491.6Q857.4 491.6 856.6 492.1Q855.9 492.6 855.4 493.5L855.4 493.5Q855.1 494.2 855.1 495.0ZM871.0 502.3L871.0 502.3Q869.5 502.3 868.4 501.5Q867.2 500.7 866.6 499.3Q865.9 497.9 865.9 496.0L865.9 496.0Q865.9 494.1 866.6 492.7Q867.2 491.3 868.4 490.6Q869.5 489.8 871.0 489.8L871.0 489.8Q872.2 489.8 872.9 490.2Q873.5 490.6 873.9 491.1Q874.3 491.6 874.5 491.9L874.5 491.9L874.6 491.9L874.6 486.0L876.6 486.0L876.6 502L874.7 502L874.7 500.1L874.5 500.1Q874.3 500.5 873.9 501.0Q873.5 501.5 872.8 501.9Q872.1 502.3 871.0 502.3ZM871.3 500.5L871.3 500.5Q872.4 500.5 873.1 500.0Q873.9 499.4 874.3 498.4Q874.7 497.3 874.7 496.0L874.7 496.0Q874.7 494.7 874.3 493.7Q873.9 492.7 873.1 492.1Q872.4 491.6 871.3 491.6L871.3 491.6Q870.1 491.6 869.4 492.2Q868.6 492.8 868.3 493.8Q867.9 494.8 867.9 496.0L867.9 496.0Q867.9 497.3 868.3 498.3Q868.6 499.3 869.4 499.9Q870.2 500.5 871.3 500.5ZM881.9 502L880.0 502L880.0 490.0L881.9 490.0L881.9 502ZM880.9 488.0L880.9 488.0Q880.4 488.0 880.0 487.6Q879.6 487.3 879.6 486.7L879.6 486.7Q879.6 486.2 880.0 485.8Q880.4 485.5 880.9 485.5L880.9 485.5Q881.5 485.5 881.9 485.8Q882.3 486.2 882.3 486.7L882.3 486.7Q882.3 487.3 881.9 487.6Q881.5 488.0 880.9 488.0ZM887.2 494.8L887.2 494.8L887.2 502L885.3 502L885.3 490.0L887.1 490.0L887.2 492.2Q887.7 491.1 888.5 490.5L888.5 490.5Q889.5 489.8 890.8 489.8L890.8 489.8Q892.0 489.8 893.0 490.3Q893.9 490.8 894.4 491.8Q894.9 492.8 894.9 494.4L894.9 494.4L894.9 502L893.0 502L893.0 494.5Q893.0 493.1 892.2 492.4Q891.5 491.6 890.3 491.6L890.3 491.6Q889.4 491.6 888.7 492.0Q888.0 492.3 887.6 493.1Q887.2 493.8 887.2 494.8ZM903.2 506.7L903.2 506.7Q901.8 506.7 900.9 506.4Q899.9 506.1 899.2 505.5Q898.6 505.0 898.2 504.3L898.2 504.3L899.8 503.3Q900.0 503.6 900.4 504.1Q900.8 504.5 901.5 504.8Q902.1 505.1 903.2 505.1L903.2 505.1Q904.6 505.1 905.5 504.4Q906.5 503.7 906.5 502.2L906.5 502.2L906.5 499.8L906.3 499.8Q906.1 500.1 905.7 500.6Q905.3 501.1 904.6 501.4Q903.9 501.8 902.8 501.8L902.8 501.8Q901.3 501.8 900.2 501.1Q899.0 500.4 898.4 499.1Q897.7 497.8 897.7 495.9L897.7 495.9Q897.7 494.1 898.4 492.7Q899.0 491.3 900.2 490.6Q901.3 489.8 902.8 489.8L902.8 489.8Q904.0 489.8 904.7 490.2Q905.4 490.6 905.7 491.1Q906.1 491.6 906.3 491.9L906.3 491.9L906.5 491.9L906.5 490.0L908.4 490.0L908.4 502.3Q908.4 503.9 907.7 504.8Q907.0 505.8 905.8 506.3Q904.6 506.7 903.2 506.7ZM903.1 500.1L903.1 500.1Q904.2 500.1 904.9 499.6Q905.7 499.1 906.1 498.1Q906.5 497.2 906.5 495.9L906.5 495.9Q906.5 494.6 906.1 493.6Q905.7 492.7 905.0 492.1Q904.2 491.6 903.1 491.6L903.1 491.6Q902.0 491.6 901.2 492.2Q900.4 492.7 900.1 493.7Q899.7 494.7 899.7 495.9L899.7 495.9Q899.7 497.1 900.1 498.1Q900.4 499.0 901.2 499.6Q902.0 500.1 903.1 500.1Z M923.0 502.3L923.0 502.3Q921.3 502.3 920.0 501.5Q918.8 500.7 918.1 499.3Q917.4 497.9 917.4 496.1Q917.4 494.2 918.1 492.8Q918.7 491.4 919.9 490.6Q921.2 489.8 922.8 489.8L922.8 489.8Q923.7 489.8 924.7 490.2Q925.6 490.5 926.4 491.2Q927.1 491.9 927.6 493.0Q928.0 494.2 928.0 495.8L928.0 495.8L928.0 496.7L919.3 496.7Q919.4 497.8 919.8 498.6L919.8 498.6Q920.3 499.6 921.1 500.1Q921.9 500.5 923.0 500.5L923.0 500.5Q923.7 500.5 924.3 500.3Q924.9 500.1 925.3 499.7Q925.7 499.3 926.0 498.7L926.0 498.7L927.8 499.2Q927.6 500.1 926.9 500.8Q926.2 501.5 925.2 501.9Q924.3 502.3 923.0 502.3ZM919.4 495.0L919.4 495.0L926.1 495.0Q926.0 494.2 925.7 493.5L925.7 493.5Q925.3 492.6 924.6 492.1Q923.9 491.6 922.8 491.6Q921.7 491.6 920.9 492.1Q920.2 492.6 919.8 493.5L919.8 493.5Q919.4 494.2 919.4 495.0ZM935.3 502.3L935.3 502.3Q933.8 502.3 932.7 501.5Q931.5 500.7 930.9 499.3Q930.2 497.9 930.2 496.0L930.2 496.0Q930.2 494.1 930.9 492.7Q931.5 491.3 932.7 490.6Q933.8 489.8 935.3 489.8L935.3 489.8Q936.5 489.8 937.2 490.2Q937.9 490.6 938.2 491.1Q938.6 491.6 938.8 491.9L938.8 491.9L938.9 491.9L938.9 486.0L940.9 486.0L940.9 502L939.0 502L939.0 500.1L938.8 500.1Q938.6 500.5 938.2 501.0Q937.8 501.5 937.1 501.9Q936.4 502.3 935.3 502.3ZM935.6 500.5L935.6 500.5Q936.7 500.5 937.4 500.0Q938.2 499.4 938.6 498.4Q939.0 497.3 939.0 496.0L939.0 496.0Q939.0 494.7 938.6 493.7Q938.2 492.7 937.4 492.1Q936.7 491.6 935.6 491.6L935.6 491.6Q934.4 491.6 933.7 492.2Q932.9 492.8 932.6 493.8Q932.2 494.8 932.2 496.0L932.2 496.0Q932.2 497.3 932.6 498.3Q932.9 499.3 933.7 499.9Q934.5 500.5 935.6 500.5ZM949.1 506.7L949.1 506.7Q947.8 506.7 946.8 506.4Q945.9 506.1 945.2 505.5Q944.6 505.0 944.2 504.3L944.2 504.3L945.8 503.3Q946.0 503.6 946.4 504.1Q946.8 504.5 947.4 504.8Q948.1 505.1 949.1 505.1L949.1 505.1Q950.6 505.1 951.5 504.4Q952.4 503.7 952.4 502.2L952.4 502.2L952.4 499.8L952.2 499.8Q952.0 500.1 951.7 500.6Q951.3 501.1 950.6 501.4Q949.9 501.8 948.8 501.8L948.8 501.8Q947.3 501.8 946.2 501.1Q945.0 500.4 944.4 499.1Q943.7 497.8 943.7 495.9L943.7 495.9Q943.7 494.1 944.3 492.7Q945.0 491.3 946.2 490.6Q947.3 489.8 948.8 489.8L948.8 489.8Q950.0 489.8 950.7 490.2Q951.3 490.6 951.7 491.1Q952.1 491.6 952.3 491.9L952.3 491.9L952.5 491.9L952.5 490.0L954.4 490.0L954.4 502.3Q954.4 503.9 953.7 504.8Q953.0 505.8 951.8 506.3Q950.6 506.7 949.1 506.7ZM949.1 500.1L949.1 500.1Q950.2 500.1 950.9 499.6Q951.7 499.1 952.1 498.1Q952.5 497.2 952.5 495.9L952.5 495.9Q952.5 494.6 952.1 493.6Q951.7 492.7 950.9 492.1Q950.2 491.6 949.1 491.6L949.1 491.6Q947.9 491.6 947.2 492.2Q946.4 492.7 946.0 493.7Q945.7 494.7 945.7 495.9L945.7 495.9Q945.7 497.1 946.0 498.1Q946.4 499.0 947.2 499.6Q948.0 500.1 949.1 500.1ZM962.8 502.3L962.8 502.3Q961.1 502.3 959.8 501.5Q958.5 500.7 957.9 499.3Q957.2 497.9 957.2 496.1Q957.2 494.2 957.8 492.8Q958.5 491.4 959.7 490.6Q960.9 489.8 962.6 489.8L962.6 489.8Q963.5 489.8 964.5 490.2Q965.4 490.5 966.2 491.2Q966.9 491.9 967.4 493.0Q967.8 494.2 967.8 495.8L967.8 495.8L967.8 496.7L959.1 496.7Q959.2 497.8 959.6 498.6L959.6 498.6Q960.1 499.6 960.9 500.1Q961.7 500.5 962.8 500.5L962.8 500.5Q963.5 500.5 964.1 500.3Q964.7 500.1 965.1 499.7Q965.5 499.3 965.8 498.7L965.8 498.7L967.6 499.2Q967.3 500.1 966.7 500.8Q966.0 501.5 965.0 501.9Q964.0 502.3 962.8 502.3ZM959.1 495.0L959.1 495.0L965.8 495.0Q965.8 494.2 965.5 493.5L965.5 493.5Q965.1 492.6 964.4 492.1Q963.7 491.6 962.6 491.6Q961.5 491.6 960.7 492.1Q959.9 492.6 959.5 493.5L959.5 493.5Q959.2 494.2 959.1 495.0Z M981.7 502.3L981.7 502.3Q980.0 502.3 978.8 501.5Q977.6 500.7 976.9 499.3Q976.2 497.9 976.2 496.1L976.2 496.1Q976.2 494.2 976.9 492.8Q977.6 491.4 978.8 490.6Q980.0 489.8 981.7 489.8L981.7 489.8Q983.3 489.8 984.5 490.6Q985.8 491.4 986.5 492.8Q987.1 494.2 987.1 496.1L987.1 496.1Q987.1 497.9 986.5 499.3Q985.8 500.7 984.5 501.5Q983.3 502.3 981.7 502.3ZM981.7 500.5L981.7 500.5Q982.9 500.5 983.7 499.9Q984.4 499.3 984.8 498.3Q985.2 497.3 985.2 496.1L985.2 496.1Q985.2 494.9 984.8 493.9Q984.4 492.8 983.7 492.2Q982.9 491.6 981.7 491.6L981.7 491.6Q980.5 491.6 979.7 492.2Q978.9 492.8 978.5 493.8Q978.2 494.9 978.2 496.1L978.2 496.1Q978.2 497.3 978.5 498.3Q978.9 499.3 979.7 499.9Q980.5 500.5 981.7 500.5ZM992.8 490.0L995.5 490.0L995.5 491.6L992.8 491.6L992.8 502L990.8 502L990.8 491.6L988.5 491.6L988.5 490.0L990.8 490.0L990.8 488.4Q990.8 487.3 991.3 486.6Q991.8 486.0 992.6 485.6Q993.4 485.2 994.3 485.2L994.3 485.2Q994.9 485.2 995.4 485.4Q995.8 485.5 996.1 485.6L996.1 485.6L995.5 487.2Q995.4 487.2 995.1 487.1Q994.9 487.0 994.5 487.0L994.5 487.0Q993.6 487.0 993.2 487.5Q992.8 487.9 992.8 488.8L992.8 488.8L992.8 490.0Z "/></g><mask id="satori_om-id-2-1-1-1-2"><rect x="633" y="510" width="470" height="31" fill="#fff" mask="url(#satori_om-id)"/></mask><mask id="satori_om-id-2-1-1-1-2-0"><rect x="633" y="510" width="139" height="31" fill="#fff" mask="url(#satori_om-id)"/></mask><g mask="url(#satori_om-id)" clip-path="url(#satori_cp-id)"><path fill="#F472B6" d="M639.6 537.7L639.6 537.7Q638.2 537.7 637.3 537.4Q636.3 537.1 635.6 536.5Q635.0 536.0 634.6 535.3L634.6 535.3L636.2 534.3Q636.4 534.6 636.8 535.1Q637.2 535.5 637.9 535.8Q638.5 536.1 639.6 536.1L639.6 536.1Q641.0 536.1 641.9 535.4Q642.9 534.7 642.9 533.2L642.9 533.2L642.9 530.8L642.7 530.8Q642.5 531.1 642.1 531.6Q641.7 532.1 641.0 532.4Q640.3 532.8 639.2 532.8L639.2 532.8Q637.7 532.8 636.6 532.1Q635.4 531.4 634.8 530.1Q634.1 528.8 634.1 526.9L634.1 526.9Q634.1 525.1 634.8 523.7Q635.4 522.3 636.6 521.6Q637.7 520.8 639.2 520.8L639.2 520.8Q640.4 520.8 641.1 521.2Q641.8 521.6 642.2 522.1Q642.5 522.6 642.7 522.9L642.7 522.9L642.9 522.9L642.9 521.0L644.8 521.0L644.8 533.3Q644.8 534.9 644.1 535.8Q643.4 536.8 642.2 537.3Q641.0 537.7 639.6 537.7ZM639.5 531.1L639.5 531.1Q640.6 531.1 641.4 530.6Q642.1 530.1 642.5 529.1Q642.9 528.2 642.9 526.9L642.9 526.9Q642.9 525.6 642.5 524.6Q642.1 523.7 641.4 523.1Q640.6 522.6 639.5 522.6L639.5 522.6Q638.4 522.6 637.6 523.2Q636.8 523.7 636.5 524.7Q636.1 525.7 636.1 526.9L636.1 526.9Q636.1 528.1 636.5 529.1Q636.9 530.0 637.6 530.6Q638.4 531.1 639.5 531.1ZM653.2 533.3L653.2 533.3Q651.5 533.3 650.2 532.5Q649.0 531.7 648.3 530.3Q647.6 528.9 647.6 527.1Q647.6 525.2 648.3 523.8Q648.9 522.4 650.2 521.6Q651.4 520.8 653.0 520.8L653.0 520.8Q654.0 520.8 654.9 521.2Q655.8 521.5 656.6 522.2Q657.3 522.9 657.8 524.0Q658.2 525.2 658.2 526.8L658.2 526.8L658.2 527.7L649.6 527.7Q649.6 528.8 650.0 529.6L650.0 529.6Q650.5 530.6 651.3 531.1Q652.2 531.5 653.2 531.5L653.2 531.5Q654.0 531.5 654.5 531.3Q655.1 531.1 655.5 530.7Q656.0 530.3 656.2 529.7L656.2 529.7L658.1 530.2Q657.8 531.1 657.1 531.8Q656.4 532.5 655.5 532.9Q654.5 533.3 653.2 533.3ZM649.6 526.0L649.6 526.0L656.3 526.0Q656.2 525.2 655.9 524.5L655.9 524.5Q655.6 523.6 654.8 523.1Q654.1 522.6 653.0 522.6Q651.9 522.6 651.2 523.1Q650.4 523.6 650.0 524.5L650.0 524.5Q649.6 525.2 649.6 526.0ZM662.9 525.8L662.9 525.8L662.9 533L661.0 533L661.0 521.0L662.9 521.0L662.9 523.2Q663.4 522.1 664.2 521.5L664.2 521.5Q665.2 520.8 666.6 520.8L666.6 520.8Q667.8 520.8 668.7 521.3Q669.6 521.8 670.1 522.8Q670.6 523.8 670.6 525.4L670.6 525.4L670.6 533L668.7 533L668.7 525.5Q668.7 524.1 668.0 523.4Q667.2 522.6 666.0 522.6L666.0 522.6Q665.1 522.6 664.4 523.0Q663.7 523.3 663.3 524.1Q662.9 524.8 662.9 525.8ZM679.1 533.3L679.1 533.3Q677.3 533.3 676.1 532.5Q674.8 531.7 674.1 530.3Q673.4 528.9 673.4 527.1Q673.4 525.2 674.1 523.8Q674.8 522.4 676.0 521.6Q677.2 520.8 678.8 520.8L678.8 520.8Q679.8 520.8 680.7 521.2Q681.7 521.5 682.4 522.2Q683.2 522.9 683.6 524.0Q684.1 525.2 684.1 526.8L684.1 526.8L684.1 527.7L675.4 527.7Q675.4 528.8 675.9 529.6L675.9 529.6Q676.3 530.6 677.1 531.1Q678.0 531.5 679.1 531.5L679.1 531.5Q679.8 531.5 680.4 531.3Q680.9 531.1 681.4 530.7Q681.8 530.3 682.0 529.7L682.0 529.7L683.9 530.2Q683.6 531.1 682.9 531.8Q682.3 532.5 681.3 532.9Q680.3 533.3 679.1 533.3ZM675.4 526.0L675.4 526.0L682.1 526.0Q682.0 525.2 681.8 524.5L681.8 524.5Q681.4 523.6 680.7 523.1Q679.9 522.6 678.8 522.6Q677.8 522.6 677.0 523.1Q676.2 523.6 675.8 524.5L675.8 524.5Q675.5 525.2 675.4 526.0ZM688.8 533L686.8 533L686.8 521.0L688.7 521.0L688.7 522.8L688.8 522.8Q689.2 521.9 690.0 521.4Q690.9 520.8 692.0 520.8L692.0 520.8Q692.2 520.8 692.5 520.8Q692.8 520.8 692.9 520.9L692.9 520.9L692.9 522.8Q692.8 522.8 692.5 522.7Q692.2 522.7 691.8 522.7L691.8 522.7Q690.9 522.7 690.2 523.0Q689.5 523.4 689.2 524.0Q688.8 524.7 688.8 525.5L688.8 525.5L688.8 533ZM698.5 533.3L698.5 533.3Q697.3 533.3 696.4 532.8Q695.5 532.4 694.9 531.6Q694.4 530.8 694.4 529.6L694.4 529.6Q694.4 528.6 694.8 527.9Q695.2 527.3 695.9 526.9Q696.6 526.5 697.4 526.3Q698.2 526.2 699.1 526.0L699.1 526.0Q700.1 525.9 700.8 525.8Q701.5 525.8 701.8 525.6Q702.1 525.4 702.1 525.0L702.1 525.0L702.1 524.9Q702.1 524.1 701.9 523.6Q701.6 523.1 701.0 522.8Q700.5 522.5 699.6 522.5L699.6 522.5Q698.8 522.5 698.2 522.8Q697.5 523.1 697.2 523.5Q696.8 523.9 696.6 524.3L696.6 524.3L694.7 523.7Q695.2 522.6 696.0 522.0Q696.8 521.4 697.7 521.1Q698.7 520.8 699.6 520.8L699.6 520.8Q700.2 520.8 700.9 521.0Q701.7 521.1 702.4 521.6Q703.1 522.0 703.6 522.8Q704.1 523.7 704.1 525.1L704.1 525.1L704.1 533L702.2 533L702.2 531.4L702.1 531.4Q701.8 531.8 701.4 532.2Q700.9 532.7 700.2 533.0Q699.5 533.3 698.5 533.3ZM698.8 531.6L698.8 531.6Q699.9 531.6 700.6 531.2Q701.4 530.7 701.8 530.1Q702.1 529.4 702.1 528.7L702.1 528.7L702.1 527.0Q702.0 527.1 701.6 527.2Q701.2 527.4 700.7 527.4Q700.2 527.5 699.7 527.6Q699.3 527.7 699.0 527.7L699.0 527.7Q698.3 527.8 697.7 528.0Q697.1 528.2 696.7 528.6Q696.3 529.0 696.3 529.7L696.3 529.7Q696.3 530.3 696.7 530.7Q697.0 531.1 697.5 531.4Q698.1 531.6 698.8 531.6ZM709.7 521.0L712.2 521.0L712.2 522.6L709.7 522.6L709.7 529.9Q709.7 530.7 710.1 531.1Q710.4 531.4 711.1 531.4L711.1 531.4Q711.3 531.4 711.6 531.4Q711.9 531.3 712.1 531.3L712.1 531.3L712.5 532.9Q712.2 533.0 711.9 533.1Q711.5 533.2 711.1 533.2L711.1 533.2Q709.5 533.2 708.7 532.3Q707.8 531.5 707.8 530.0L707.8 530.0L707.8 522.6L706.0 522.6L706.0 521.0L707.8 521.0L707.8 518.1L709.7 518.1L709.7 521.0ZM716.6 533L714.7 533L714.7 521.0L716.6 521.0L716.6 533ZM715.7 519.0L715.7 519.0Q715.1 519.0 714.7 518.6Q714.3 518.3 714.3 517.7L714.3 517.7Q714.3 517.2 714.7 516.8Q715.1 516.5 715.7 516.5L715.7 516.5Q716.2 516.5 716.6 516.8Q717.0 517.2 717.0 517.7L717.0 517.7Q717.0 518.3 716.6 518.6Q716.2 519.0 715.7 519.0ZM725.5 533L723.5 533L718.9 521.0L721 521.0L723.6 528.1Q724.0 529.2 724.3 530.3L724.3 530.3Q724.4 530.8 724.5 531.2L724.5 531.2Q724.6 530.8 724.7 530.3L724.7 530.3Q725.0 529.2 725.4 528.1L725.4 528.1L728.0 521.0L730.1 521.0L725.5 533ZM737.4 533.3L737.4 533.3Q735.7 533.3 734.4 532.5Q733.1 531.7 732.5 530.3Q731.8 528.9 731.8 527.1Q731.8 525.2 732.5 523.8Q733.1 522.4 734.3 521.6Q735.6 520.8 737.2 520.8L737.2 520.8Q738.1 520.8 739.1 521.2Q740.0 521.5 740.8 522.2Q741.5 522.9 742.0 524.0Q742.4 525.2 742.4 526.8L742.4 526.8L742.4 527.7L733.7 527.7Q733.8 528.8 734.2 529.6L734.2 529.6Q734.7 530.6 735.5 531.1Q736.3 531.5 737.4 531.5L737.4 531.5Q738.1 531.5 738.7 531.3Q739.3 531.1 739.7 530.7Q740.1 530.3 740.4 529.7L740.4 529.7L742.2 530.2Q741.9 531.1 741.3 531.8Q740.6 532.5 739.6 532.9Q738.6 533.3 737.4 533.3ZM733.8 526.0L733.8 526.0L740.5 526.0Q740.4 525.2 740.1 524.5L740.1 524.5Q739.7 523.6 739.0 523.1Q738.3 522.6 737.2 522.6Q736.1 522.6 735.3 523.1Q734.6 523.6 734.1 524.5L734.1 524.5Q733.8 525.2 733.8 526.0Z M757.9 533.3L757.9 533.3Q756.0 533.3 754.6 532.5Q753.2 531.8 752.4 530.5Q751.6 529.2 751.6 527.6L751.6 527.6L751.6 517.0L753.7 517.0L753.7 527.4Q753.7 528.5 754.2 529.4Q754.7 530.3 755.6 530.9Q756.6 531.4 757.9 531.4L757.9 531.4Q759.2 531.4 760.1 530.9Q761.1 530.3 761.6 529.4Q762.1 528.5 762.1 527.4L762.1 527.4L762.1 517.0L764.1 517.0L764.1 527.6Q764.1 529.2 763.3 530.5Q762.6 531.8 761.2 532.5Q759.8 533.3 757.9 533.3ZM768.0 517.0L770.0 517.0L770.0 533L768.0 533L768.0 517.0Z "/></g><g mask="url(#satori_om-id)" clip-path="url(#satori_cp-id)"><path fill="#E4E4E7" d="M781.2 533.1L781.2 533.1Q780.6 533.1 780.1 532.7Q779.7 532.3 779.7 531.7L779.7 531.7Q779.7 531.1 780.1 530.7Q780.6 530.2 781.2 530.2L781.2 530.2Q781.8 530.2 782.2 530.7Q782.6 531.1 782.6 531.7L782.6 531.7Q782.6 532.3 782.2 532.7Q781.8 533.1 781.2 533.1Z "/></g></svg>